<?xml version="1.0" encoding="UTF-8"?>
<!DOCTYPE svg PUBLIC "-//W3C//DTD SVG 1.1//EN" "http://www.w3.org/Graphics/SVG/1.1/DTD/svg11.dtd">
<svg xmlns="http://www.w3.org/2000/svg" version="1.1" width="1408px" height="768px" style="shape-rendering:geometricPrecision; text-rendering:geometricPrecision; image-rendering:optimizeQuality; fill-rule:evenodd; clip-rule:evenodd" xmlns:xlink="http://www.w3.org/1999/xlink">
<g><path style="opacity:1" fill="#f9f9f9" d="M -0.5,-0.5 C 468.833,-0.5 938.167,-0.5 1407.5,-0.5C 1407.5,255.5 1407.5,511.5 1407.5,767.5C 938.167,767.5 468.833,767.5 -0.5,767.5C -0.5,511.5 -0.5,255.5 -0.5,-0.5 Z"/></g>
<g><path style="opacity:1" fill="#312f2a" d="M 553.5,244.5 C 554.314,242.369 554.814,240.036 555,237.5C 556.177,243.179 557.344,248.846 558.5,254.5C 558.266,269.132 558.266,283.798 558.5,298.5C 553.706,309.75 549.206,321.083 545,332.5C 543.572,345.138 543.239,357.804 544,370.5C 544.875,376.401 547.375,381.401 551.5,385.5C 552.473,387.139 553.806,388.473 555.5,389.5C 556.833,391.833 558.167,394.167 559.5,396.5C 559.539,397.583 559.873,398.583 560.5,399.5C 562.909,401.502 565.242,403.502 567.5,405.5C 570.531,406.366 573.197,407.866 575.5,410C 577.473,410.495 579.473,410.662 581.5,410.5C 583.121,412.117 585.121,413.284 587.5,414C 597.167,414.667 606.833,414.667 616.5,414C 621.136,413.121 625.469,411.455 629.5,409C 630.252,408.329 630.586,407.496 630.5,406.5C 630.702,404.011 630.202,401.677 629,399.5C 626.331,396 623.498,392.667 620.5,389.5C 617.5,384.5 613.5,380.5 608.5,377.5C 607.949,374.733 606.616,372.4 604.5,370.5C 604.977,369.522 605.643,368.689 606.5,368C 604.608,367.027 602.608,366.36 600.5,366C 601.618,364.926 602.618,363.76 603.5,362.5C 605.483,363.982 607.316,365.649 609,367.5C 609.49,370.48 610.99,372.813 613.5,374.5C 614.995,375.705 616.328,375.705 617.5,374.5C 617.833,374.5 618.167,374.5 618.5,374.5C 618.5,375.167 618.833,375.5 619.5,375.5C 621.527,378.194 623.861,380.527 626.5,382.5C 626.5,383.167 626.833,383.5 627.5,383.5C 630.118,387.291 632.951,390.957 636,394.5C 640.667,400.5 640.667,406.5 636,412.5C 632.855,414.976 629.688,417.31 626.5,419.5C 624.05,419.298 621.717,419.631 619.5,420.5C 618.833,420.5 618.167,420.5 617.5,420.5C 601.157,421.941 585.49,419.608 570.5,413.5C 570.423,412.25 569.756,411.417 568.5,411C 566.527,410.505 564.527,410.338 562.5,410.5C 562.21,416.082 563.043,421.416 565,426.5C 567.04,431.048 569.207,435.381 571.5,439.5C 571.5,439.833 571.5,440.167 571.5,440.5C 571.678,443.216 572.178,445.883 573,448.5C 575.335,451.166 577.169,454.166 578.5,457.5C 579.325,458.386 580.325,458.719 581.5,458.5C 582.167,458.833 582.833,459.167 583.5,459.5C 584.167,461.167 584.833,462.833 585.5,464.5C 589.461,469.468 593.461,474.468 597.5,479.5C 601.843,482.337 606.176,485.17 610.5,488C 611.448,488.483 612.448,488.649 613.5,488.5C 613.369,489.376 613.702,490.043 614.5,490.5C 619.312,492.832 623.979,495.332 628.5,498C 629.5,498.167 630.5,498.333 631.5,498.5C 634.285,497.024 637.119,495.69 640,494.5C 643.162,495.412 645.828,497.079 648,499.5C 649.999,498.502 651.999,497.502 654,496.5C 654.833,496.667 655.667,496.833 656.5,497C 659.26,498.985 661.26,501.485 662.5,504.5C 662.833,504.5 663.167,504.5 663.5,504.5C 665.48,506.105 667.813,507.272 670.5,508C 677.128,509.052 683.794,509.552 690.5,509.5C 708.207,511.399 725.874,510.232 743.5,506C 745.107,504.951 745.773,503.451 745.5,501.5C 746.837,500.685 747.837,499.518 748.5,498C 749.873,497.125 751.373,496.625 753,496.5C 755.649,497.802 758.316,499.136 761,500.5C 761.508,498.096 762.675,497.429 764.5,498.5C 765.167,497.833 765.833,497.167 766.5,496.5C 769.069,497.019 771.902,497.685 775,498.5C 779.792,497.24 784.292,495.406 788.5,493C 790.5,492.667 792.5,492.333 794.5,492C 793.359,491.259 793.359,490.425 794.5,489.5C 796.571,487.815 798.571,486.148 800.5,484.5C 807.613,480.835 813.779,475.835 819,469.5C 821.975,464.53 825.642,460.196 830,456.5C 830.494,454.866 830.66,453.199 830.5,451.5C 836.891,443.3 840.558,433.966 841.5,423.5C 842.649,423.209 843.316,422.376 843.5,421C 844.455,417.529 844.622,414.029 844,410.5C 843.586,410.043 843.086,409.709 842.5,409.5C 837.483,411.352 832.816,413.852 828.5,417C 823.011,417.202 817.678,418.202 812.5,420C 804.841,420.5 797.174,420.666 789.5,420.5C 788.833,420.5 788.167,420.5 787.5,420.5C 785.285,419.732 782.952,419.065 780.5,418.5C 779.833,418.167 779.167,417.833 778.5,417.5C 769.435,412.375 766.935,405.042 771,395.5C 773.358,391.442 776.192,387.775 779.5,384.5C 780.167,384.5 780.5,384.167 780.5,383.5C 783.473,381.194 786.14,378.527 788.5,375.5C 788.833,375.5 789.167,375.5 789.5,375.5C 793.711,373.469 797.544,370.802 801,367.5C 802.365,368.593 802.699,369.926 802,371.5C 801.667,371.167 801.333,370.833 801,370.5C 800.51,371.793 800.343,373.127 800.5,374.5C 796.545,375.186 793.879,377.353 792.5,381C 791.552,381.483 790.552,381.649 789.5,381.5C 789.5,383.167 789.5,384.833 789.5,386.5C 785.865,390.307 782.365,394.307 779,398.5C 775.965,404.168 777.465,408.001 783.5,410C 786.312,411.549 789.312,412.382 792.5,412.5C 794.265,413.461 796.265,413.795 798.5,413.5C 806.76,414.962 815.093,414.629 823.5,412.5C 825.786,411.421 827.786,410.087 829.5,408.5C 835.768,405.213 841.435,401.213 846.5,396.5C 847.833,395.5 849.167,394.5 850.5,393.5C 857.058,387.051 861.558,379.385 864,370.5C 864.864,354.949 863.531,339.616 860,324.5C 858.595,323.269 857.429,321.936 856.5,320.5C 853.872,314.568 851.205,308.568 848.5,302.5C 848.357,284.158 847.857,265.825 847,247.5C 846.902,238.455 845.235,229.788 842,221.5C 840.676,231.483 839.343,241.483 838,251.5C 835.898,255.372 834.064,259.372 832.5,263.5C 832.443,264.609 832.11,265.609 831.5,266.5C 831.167,266.5 830.833,266.5 830.5,266.5C 828.396,266.201 826.396,266.534 824.5,267.5C 824.709,268.086 825.043,268.586 825.5,269C 823.845,270.444 823.178,272.278 823.5,274.5C 821.5,275.167 819.5,275.833 817.5,276.5C 817.67,277.822 817.337,278.989 816.5,280C 796.659,293.029 775.659,295.029 753.5,286C 750.32,282.804 746.653,280.471 742.5,279C 740.978,276.695 738.978,275.195 736.5,274.5C 735.5,273.833 734.5,273.167 733.5,272.5C 732.075,271.078 731.075,269.411 730.5,267.5C 717.96,245.029 717.293,222.029 728.5,198.5C 728.557,197.391 728.89,196.391 729.5,195.5C 736.745,185.597 746.079,178.263 757.5,173.5C 768.339,170.774 779.339,169.941 790.5,171C 798.32,172.33 805.32,175.497 811.5,180.5C 814.035,181.9 816.702,182.9 819.5,183.5C 824.833,186.833 829.167,191.167 832.5,196.5C 837.725,207.385 838.558,207.052 835,195.5C 834.617,194.944 834.117,194.611 833.5,194.5C 832.319,189.142 830.319,184.142 827.5,179.5C 826.565,176.887 826.398,174.221 827,171.5C 829.553,163.667 832.053,155.834 834.5,148C 833.693,142.917 833.193,137.75 833,132.5C 832.722,131.584 832.222,130.918 831.5,130.5C 828.424,130.058 825.257,129.725 822,129.5C 820.924,133.106 818.757,134.106 815.5,132.5C 814.251,134.475 812.751,134.809 811,133.5C 806.842,135.377 802.675,137.21 798.5,139C 796.047,139.738 793.547,140.238 791,140.5C 781.168,137.446 771.668,133.613 762.5,129C 724.968,118.072 687.301,117.739 649.5,128C 645.939,129.232 642.606,130.732 639.5,132.5C 633.598,133.411 627.931,135.245 622.5,138C 606.967,140.78 592.967,137.613 580.5,128.5C 579.402,127.603 579.402,126.77 580.5,126C 579.667,125.167 578.833,124.333 578,123.5C 576.59,125.884 574.59,127.55 572,128.5C 571.853,131.571 571.02,134.404 569.5,137C 569.812,140.163 570.479,143.497 571.5,147C 570.833,148 570.167,149 569.5,150C 571.281,152.487 572.447,155.321 573,158.5C 573.424,154.81 574.258,154.643 575.5,158C 575.545,161.135 575.545,164.302 575.5,167.5C 577.439,169.122 577.772,170.956 576.5,173C 578.18,173.347 579.18,174.347 579.5,176C 574.583,184.19 570.917,192.523 568.5,201C 567.534,203.099 566.2,204.932 564.5,206.5C 565.902,207.842 565.569,208.676 563.5,209C 565.615,209.424 566.448,210.591 566,212.5C 564.992,212.982 563.825,213.148 562.5,213C 563.517,214.049 563.684,215.216 563,216.5C 562.333,215.167 561.667,215.167 561,216.5C 561.718,212.824 561.551,209.157 560.5,205.5C 563.17,194.327 567.503,183.827 573.5,174C 568.015,158.589 566.182,142.756 568,126.5C 569.504,120.943 573.004,119.11 578.5,121C 591.126,128.768 604.793,132.434 619.5,132C 675.187,107.403 730.853,107.403 786.5,132C 801.575,132.645 815.575,128.978 828.5,121C 833.428,119.357 836.928,120.857 839,125.5C 840.455,132.444 840.788,139.444 840,146.5C 838.798,155.306 836.965,163.972 834.5,172.5C 845.499,194.154 851.999,217.154 854,241.5C 854.944,260.49 855.611,279.49 856,298.5C 865.856,315.73 871.023,334.23 871.5,354C 871.994,372.523 866.161,388.69 854,402.5C 851.217,431.046 840.55,456.046 822,477.5C 813.09,486.577 802.924,493.91 791.5,499.5C 791.49,504.711 791.323,510.044 791,515.5C 788.924,524.98 783.924,526.98 776,521.5C 770.508,529.442 765.008,529.442 759.5,521.5C 751.727,526.894 746.727,524.894 744.5,515.5C 743.5,515.167 742.5,514.833 741.5,514.5C 715.164,519.833 688.83,519.833 662.5,514.5C 661.122,524.69 656.122,527.023 647.5,521.5C 641.867,529.397 636.2,529.397 630.5,521.5C 626.628,525.455 622.795,525.455 619,521.5C 615.185,514.85 614.685,508.017 617.5,501C 587.7,485.195 568.2,461.028 559,428.5C 556.678,419.57 554.678,410.57 553,401.5C 543.288,390.718 537.621,378.051 536,363.5C 534.849,340.259 540.182,318.593 552,298.5C 552.337,280.491 552.837,262.491 553.5,244.5 Z"/></g>
<g><path style="opacity:1" fill="#482a19" d="M 831.5,130.5 C 822.917,133.054 814.584,136.054 806.5,139.5C 799.607,141.248 792.607,141.748 785.5,141C 770.825,133.005 755.158,127.838 738.5,125.5C 737.833,125.5 737.167,125.5 736.5,125.5C 732.124,123.862 727.458,123.029 722.5,123C 708.5,122.333 694.5,122.333 680.5,123C 676.301,123.528 672.301,124.361 668.5,125.5C 665.37,125.7 662.37,126.366 659.5,127.5C 652.839,129.164 646.173,130.831 639.5,132.5C 642.606,130.732 645.939,129.232 649.5,128C 687.301,117.739 724.968,118.072 762.5,129C 771.668,133.613 781.168,137.446 791,140.5C 793.547,140.238 796.047,139.738 798.5,139C 802.675,137.21 806.842,135.377 811,133.5C 812.751,134.809 814.251,134.475 815.5,132.5C 818.757,134.106 820.924,133.106 822,129.5C 825.257,129.725 828.424,130.058 831.5,130.5 Z"/></g>
<g><path style="opacity:1" fill="#c7551e" d="M 714.5,124.5 C 721.833,124.833 729.167,125.167 736.5,125.5C 737.167,125.5 737.833,125.5 738.5,125.5C 743.921,127.942 748.755,130.608 753,133.5C 753.561,132.978 754.228,132.645 755,132.5C 764.836,135.493 774.67,138.66 784.5,142C 795.977,143.473 807.144,142.306 818,138.5C 819.577,137.449 821.077,136.449 822.5,135.5C 824.167,134.833 825.833,134.167 827.5,133.5C 829.026,134.492 829.693,135.992 829.5,138C 828.807,142.437 827.807,146.771 826.5,151C 827.214,152.343 826.88,153.676 825.5,155C 825.888,156.657 826.221,158.657 826.5,161C 825.111,165.393 824.111,169.893 823.5,174.5C 824.39,178.237 825.223,181.903 826,185.5C 821.705,181.939 817.205,178.606 812.5,175.5C 806.993,171.913 801.326,168.579 795.5,165.5C 794.637,162.514 792.97,161.514 790.5,162.5C 788.792,162.297 787.459,161.464 786.5,160C 760.396,155.585 737.23,161.085 717,176.5C 715.732,176.384 714.398,176.051 713,175.5C 712.735,177.163 713.235,178.663 714.5,180C 713.324,181.914 712.324,181.748 711.5,179.5C 710.522,179.977 709.689,180.643 709,181.5C 708.667,180.5 708.333,179.5 708,178.5C 707.667,180.167 707.333,181.833 707,183.5C 706,184.833 705,184.833 704,183.5C 701.804,186.962 699.304,186.962 696.5,183.5C 695.614,182.675 695.281,181.675 695.5,180.5C 692.355,179.923 690.855,177.923 691,174.5C 689.951,175.517 688.784,175.684 687.5,175C 686.449,173.615 685.116,172.615 683.5,172C 683.833,171.667 684.167,171.333 684.5,171C 678.808,169.643 673.808,166.976 669.5,163C 671.918,160.69 671.252,160.024 667.5,161C 668.706,162.018 668.373,162.518 666.5,162.5C 664.67,162.224 663.003,161.557 661.5,160.5C 662.641,159.575 662.641,158.741 661.5,158C 658.629,157.882 655.962,157.216 653.5,156C 654.833,155.667 656.167,155.333 657.5,155C 655.029,154.294 652.695,154.627 650.5,156C 650.833,156.333 651.167,156.667 651.5,157C 649.5,157.667 647.5,157.667 645.5,157C 647.595,156.444 647.762,155.944 646,155.5C 641.928,158.603 638.428,158.103 635.5,154C 636.308,153.692 636.975,153.192 637.5,152.5C 636.167,151.167 636.167,149.833 637.5,148.5C 634.84,144.712 631.173,142.878 626.5,143C 632.276,139.303 638.443,136.803 645,135.5C 645.333,135.833 645.667,136.167 646,136.5C 648.691,133.989 651.358,133.989 654,136.5C 655.722,136.389 655.888,135.889 654.5,135C 657.664,133.895 660.33,132.729 662.5,131.5C 663.167,132.167 663.833,132.833 664.5,133.5C 665.425,132.359 666.259,132.359 667,133.5C 667.98,132.019 669.147,130.685 670.5,129.5C 671.877,132.443 673.71,134.443 676,135.5C 676.5,134.5 677,133.5 677.5,132.5C 676.282,132.891 675.448,132.224 675,130.5C 674.667,130.833 674.333,131.167 674,131.5C 673.691,130.234 673.191,129.067 672.5,128C 686.32,125.195 700.32,124.028 714.5,124.5 Z"/></g>
<g><path style="opacity:1" fill="#a75c36" d="M 736.5,125.5 C 729.167,125.167 721.833,124.833 714.5,124.5C 709.511,123.834 704.344,123.501 699,123.5C 688.772,123.491 678.606,124.157 668.5,125.5C 672.301,124.361 676.301,123.528 680.5,123C 694.5,122.333 708.5,122.333 722.5,123C 727.458,123.029 732.124,123.862 736.5,125.5 Z"/></g>
<g><path style="opacity:1" fill="#9e5836" d="M 659.5,127.5 C 651.485,130.925 643.151,133.592 634.5,135.5C 636.261,134.687 637.928,133.687 639.5,132.5C 646.173,130.831 652.839,129.164 659.5,127.5 Z"/></g>
<g><path style="opacity:1" fill="#b65a2b" d="M 738.5,125.5 C 755.158,127.838 770.825,133.005 785.5,141C 792.607,141.748 799.607,141.248 806.5,139.5C 812.156,139.165 817.489,137.831 822.5,135.5C 821.077,136.449 819.577,137.449 818,138.5C 807.144,142.306 795.977,143.473 784.5,142C 774.67,138.66 764.836,135.493 755,132.5C 754.228,132.645 753.561,132.978 753,133.5C 748.755,130.608 743.921,127.942 738.5,125.5 Z"/></g>
<g><path style="opacity:1" fill="#a55833" d="M 587.5,135.5 C 584.211,134.626 580.877,133.959 577.5,133.5C 577.51,142.888 578.177,152.222 579.5,161.5C 575.581,151.25 574.581,140.584 576.5,129.5C 580.421,131.289 584.087,133.289 587.5,135.5 Z"/></g>
<g><path style="opacity:1" fill="#492918" d="M 580.5,128.5 C 592.967,137.613 606.967,140.78 622.5,138C 627.931,135.245 633.598,133.411 639.5,132.5C 637.928,133.687 636.261,134.687 634.5,135.5C 629.927,136.787 625.594,138.62 621.5,141C 614.077,141.698 606.744,141.198 599.5,139.5C 595.784,137.595 591.784,136.261 587.5,135.5C 584.087,133.289 580.421,131.289 576.5,129.5C 574.581,140.584 575.581,151.25 579.5,161.5C 580.34,165.861 581.34,170.195 582.5,174.5C 582.48,175.726 582.147,176.726 581.5,177.5C 579.184,168.957 577.017,160.29 575,151.5C 574.5,143.841 574.334,136.174 574.5,128.5C 576.5,128.5 578.5,128.5 580.5,128.5 Z"/></g>
<g><path style="opacity:1" fill="#c6521e" d="M 587.5,135.5 C 590.009,136.682 591.343,138.682 591.5,141.5C 590.448,141.351 589.448,141.517 588.5,142C 589.77,142.9 590.77,144.066 591.5,145.5C 592.506,145.062 592.506,144.396 591.5,143.5C 594.07,140.84 595.57,141.506 596,145.5C 597.185,143.441 598.352,143.274 599.5,145C 597.488,146.152 597.322,147.318 599,148.5C 601.306,144.639 603.473,144.639 605.5,148.5C 602.749,151.055 603.416,152.055 607.5,151.5C 607.281,152.675 607.614,153.675 608.5,154.5C 609.167,152.833 609.833,151.167 610.5,149.5C 611.134,151.567 612.134,153.4 613.5,155C 611.616,155.216 609.949,155.883 608.5,157C 609.552,158.716 608.886,159.716 606.5,160C 604.021,162.554 602.855,165.387 603,168.5C 602.667,168.167 602.333,167.833 602,167.5C 599.25,170.969 596.25,170.969 593,167.5C 592.257,169.441 592.424,171.274 593.5,173C 591.779,173.739 590.113,174.573 588.5,175.5C 588.833,176.167 589.167,176.833 589.5,177.5C 588.147,178.524 587.48,179.857 587.5,181.5C 586.064,183.319 584.397,183.652 582.5,182.5C 583.637,180.393 584.637,178.227 585.5,176C 583.779,170.99 581.779,166.157 579.5,161.5C 578.177,152.222 577.51,142.888 577.5,133.5C 580.877,133.959 584.211,134.626 587.5,135.5 Z"/></g>
<g><path style="opacity:1" fill="#b65a2e" d="M 827.5,133.5 C 828.209,132.596 829.209,132.263 830.5,132.5C 830.284,142.579 829.284,152.579 827.5,162.5C 827.013,166.462 826.013,170.296 824.5,174C 824.613,176.399 825.613,178.232 827.5,179.5C 830.319,184.142 832.319,189.142 833.5,194.5C 833.672,195.492 833.338,196.158 832.5,196.5C 829.167,191.167 824.833,186.833 819.5,183.5C 818.167,182.167 816.833,180.833 815.5,179.5C 814.5,178.167 813.5,176.833 812.5,175.5C 817.205,178.606 821.705,181.939 826,185.5C 825.223,181.903 824.39,178.237 823.5,174.5C 824.111,169.893 825.111,165.393 826.5,161C 826.221,158.657 825.888,156.657 825.5,155C 826.88,153.676 827.214,152.343 826.5,151C 827.807,146.771 828.807,142.437 829.5,138C 829.693,135.992 829.026,134.492 827.5,133.5 Z"/></g>
<g><path style="opacity:1" fill="#bf541f" d="M 714.5,124.5 C 700.32,124.028 686.32,125.195 672.5,128C 673.191,129.067 673.691,130.234 674,131.5C 674.333,131.167 674.667,130.833 675,130.5C 675.448,132.224 676.282,132.891 677.5,132.5C 677,133.5 676.5,134.5 676,135.5C 673.71,134.443 671.877,132.443 670.5,129.5C 669.147,130.685 667.98,132.019 667,133.5C 666.259,132.359 665.425,132.359 664.5,133.5C 663.833,132.833 663.167,132.167 662.5,131.5C 660.33,132.729 657.664,133.895 654.5,135C 655.888,135.889 655.722,136.389 654,136.5C 651.358,133.989 648.691,133.989 646,136.5C 645.667,136.167 645.333,135.833 645,135.5C 638.443,136.803 632.276,139.303 626.5,143C 631.173,142.878 634.84,144.712 637.5,148.5C 636.167,149.833 636.167,151.167 637.5,152.5C 636.975,153.192 636.308,153.692 635.5,154C 638.428,158.103 641.928,158.603 646,155.5C 647.762,155.944 647.595,156.444 645.5,157C 647.5,157.667 649.5,157.667 651.5,157C 651.167,156.667 650.833,156.333 650.5,156C 652.695,154.627 655.029,154.294 657.5,155C 656.167,155.333 654.833,155.667 653.5,156C 655.962,157.216 658.629,157.882 661.5,158C 662.641,158.741 662.641,159.575 661.5,160.5C 663.003,161.557 664.67,162.224 666.5,162.5C 668.373,162.518 668.706,162.018 667.5,161C 671.252,160.024 671.918,160.69 669.5,163C 673.808,166.976 678.808,169.643 684.5,171C 684.167,171.333 683.833,171.667 683.5,172C 685.116,172.615 686.449,173.615 687.5,175C 688.784,175.684 689.951,175.517 691,174.5C 690.855,177.923 692.355,179.923 695.5,180.5C 695.281,181.675 695.614,182.675 696.5,183.5C 699.304,186.962 701.804,186.962 704,183.5C 705,184.833 706,184.833 707,183.5C 707.333,181.833 707.667,180.167 708,178.5C 708.333,179.5 708.667,180.5 709,181.5C 709.689,180.643 710.522,179.977 711.5,179.5C 712.324,181.748 713.324,181.914 714.5,180C 713.235,178.663 712.735,177.163 713,175.5C 714.398,176.051 715.732,176.384 717,176.5C 737.23,161.085 760.396,155.585 786.5,160C 787.459,161.464 788.792,162.297 790.5,162.5C 792.97,161.514 794.637,162.514 795.5,165.5C 763.137,154.633 734.97,161.3 711,185.5C 708.5,189.167 706,192.833 703.5,196.5C 686.085,169.962 661.418,158.128 629.5,161C 614.787,163.191 602.121,169.357 591.5,179.5C 589.938,179.733 588.605,180.4 587.5,181.5C 587.48,179.857 588.147,178.524 589.5,177.5C 589.167,176.833 588.833,176.167 588.5,175.5C 590.113,174.573 591.779,173.739 593.5,173C 592.424,171.274 592.257,169.441 593,167.5C 596.25,170.969 599.25,170.969 602,167.5C 602.333,167.833 602.667,168.167 603,168.5C 602.855,165.387 604.021,162.554 606.5,160C 608.886,159.716 609.552,158.716 608.5,157C 609.949,155.883 611.616,155.216 613.5,155C 612.134,153.4 611.134,151.567 610.5,149.5C 609.833,151.167 609.167,152.833 608.5,154.5C 607.614,153.675 607.281,152.675 607.5,151.5C 603.416,152.055 602.749,151.055 605.5,148.5C 603.473,144.639 601.306,144.639 599,148.5C 597.322,147.318 597.488,146.152 599.5,145C 598.352,143.274 597.185,143.441 596,145.5C 595.57,141.506 594.07,140.84 591.5,143.5C 592.506,144.396 592.506,145.062 591.5,145.5C 590.77,144.066 589.77,142.9 588.5,142C 589.448,141.517 590.448,141.351 591.5,141.5C 591.343,138.682 590.009,136.682 587.5,135.5C 591.784,136.261 595.784,137.595 599.5,139.5C 599.611,140.117 599.944,140.617 600.5,141C 607.803,142.331 615.137,142.997 622.5,143C 626.621,140.585 630.621,138.085 634.5,135.5C 643.151,133.592 651.485,130.925 659.5,127.5C 662.37,126.366 665.37,125.7 668.5,125.5C 678.606,124.157 688.772,123.491 699,123.5C 704.344,123.501 709.511,123.834 714.5,124.5 Z"/></g>
<g><path style="opacity:1" fill="#af5c36" d="M 634.5,135.5 C 630.621,138.085 626.621,140.585 622.5,143C 615.137,142.997 607.803,142.331 600.5,141C 599.944,140.617 599.611,140.117 599.5,139.5C 606.744,141.198 614.077,141.698 621.5,141C 625.594,138.62 629.927,136.787 634.5,135.5 Z"/></g>
<g><path style="opacity:1" fill="#a55b36" d="M 831.5,130.5 C 832.098,141.544 830.765,152.21 827.5,162.5C 829.284,152.579 830.284,142.579 830.5,132.5C 829.209,132.263 828.209,132.596 827.5,133.5C 825.833,134.167 824.167,134.833 822.5,135.5C 817.489,137.831 812.156,139.165 806.5,139.5C 814.584,136.054 822.917,133.054 831.5,130.5 Z"/></g>
<g><path style="opacity:1" fill="#432a1b" d="M 831.5,130.5 C 832.222,130.918 832.722,131.584 833,132.5C 833.193,137.75 833.693,142.917 834.5,148C 832.053,155.834 829.553,163.667 827,171.5C 826.398,174.221 826.565,176.887 827.5,179.5C 825.613,178.232 824.613,176.399 824.5,174C 826.013,170.296 827.013,166.462 827.5,162.5C 830.765,152.21 832.098,141.544 831.5,130.5 Z"/></g>
<g><path style="opacity:1" fill="#432d18" d="M 815.5,179.5 C 816.833,180.833 818.167,182.167 819.5,183.5C 816.702,182.9 814.035,181.9 811.5,180.5C 805.32,175.497 798.32,172.33 790.5,171C 779.339,169.941 768.339,170.774 757.5,173.5C 771.465,167.359 785.799,166.859 800.5,172C 805.636,174.322 810.636,176.822 815.5,179.5 Z"/></g>
<g><path style="opacity:1" fill="#412915" d="M 651.5,174.5 C 655.316,175.909 658.983,177.576 662.5,179.5C 665.027,181.605 667.36,183.939 669.5,186.5C 663.202,182.855 657.202,178.855 651.5,174.5 Z"/></g>
<g><path style="opacity:1" fill="#f7b276" d="M 795.5,165.5 C 801.326,168.579 806.993,171.913 812.5,175.5C 813.5,176.833 814.5,178.167 815.5,179.5C 810.636,176.822 805.636,174.322 800.5,172C 785.799,166.859 771.465,167.359 757.5,173.5C 746.079,178.263 736.745,185.597 729.5,195.5C 728.5,195.5 727.5,195.5 726.5,195.5C 723.233,203.469 720.066,211.469 717,219.5C 715.092,233.129 716.926,246.129 722.5,258.5C 722.333,259.167 722.167,259.833 722,260.5C 721.124,258.365 719.624,257.031 717.5,256.5C 708.138,249.889 698.805,249.889 689.5,256.5C 688.5,256.5 687.5,256.5 686.5,256.5C 687.092,253.873 687.425,251.206 687.5,248.5C 687.5,247.833 687.5,247.167 687.5,246.5C 688.15,246.196 688.817,245.863 689.5,245.5C 691.36,232.276 690.36,219.276 686.5,206.5C 686.608,205.558 686.941,204.725 687.5,204C 686.5,203 685.5,202 684.5,201C 687.394,198.04 687.061,197.206 683.5,198.5C 682.904,197.284 682.737,195.951 683,194.5C 682.667,194.833 682.333,195.167 682,195.5C 678.971,193.971 676.805,191.638 675.5,188.5C 671.406,185.059 667.073,182.059 662.5,179.5C 658.983,177.576 655.316,175.909 651.5,174.5C 641.873,169.45 631.539,167.616 620.5,169C 617.258,169.406 614.258,170.239 611.5,171.5C 604.582,172.792 598.249,175.459 592.5,179.5C 592.167,179.5 591.833,179.5 591.5,179.5C 602.121,169.357 614.787,163.191 629.5,161C 661.418,158.128 686.085,169.962 703.5,196.5C 706,192.833 708.5,189.167 711,185.5C 734.97,161.3 763.137,154.633 795.5,165.5 Z"/></g>
<g><path style="opacity:1" fill="#472e18" d="M 651.5,174.5 C 647.174,173.339 642.841,172.172 638.5,171C 629.489,170.501 620.489,170.667 611.5,171.5C 614.258,170.239 617.258,169.406 620.5,169C 631.539,167.616 641.873,169.45 651.5,174.5 Z"/></g>
<g><path style="opacity:1" fill="#f8f8f8" d="M 819.5,195.5 C 832.928,220.37 829.595,242.87 809.5,263C 794.514,274.61 777.847,277.61 759.5,272C 751.896,268.618 745.062,264.118 739,258.5C 734.597,251.684 730.764,244.684 727.5,237.5C 726.119,211.107 737.452,192.273 761.5,181C 783.969,173.757 803.302,178.591 819.5,195.5 Z"/></g>
<g><path style="opacity:1" fill="#b35d35" d="M 579.5,161.5 C 581.779,166.157 583.779,170.99 585.5,176C 584.637,178.227 583.637,180.393 582.5,182.5C 584.397,183.652 586.064,183.319 587.5,181.5C 588.605,180.4 589.938,179.733 591.5,179.5C 591.833,179.5 592.167,179.5 592.5,179.5C 585.861,184.139 580.194,189.806 575.5,196.5C 574.167,196.5 573.5,195.833 573.5,194.5C 575.91,188.682 578.577,183.015 581.5,177.5C 582.147,176.726 582.48,175.726 582.5,174.5C 581.34,170.195 580.34,165.861 579.5,161.5 Z"/></g>
<g><path style="opacity:1" fill="#906148" d="M 833.5,194.5 C 834.117,194.611 834.617,194.944 835,195.5C 838.558,207.052 837.725,207.385 832.5,196.5C 833.338,196.158 833.672,195.492 833.5,194.5 Z"/></g>
<g><path style="opacity:1" fill="#322e27" d="M 580.5,128.5 C 578.5,128.5 576.5,128.5 574.5,128.5C 574.334,136.174 574.5,143.841 575,151.5C 577.017,160.29 579.184,168.957 581.5,177.5C 578.577,183.015 575.91,188.682 573.5,194.5C 571.431,198.209 570.265,202.209 570,206.5C 571.592,202.979 573.425,199.646 575.5,196.5C 580.194,189.806 585.861,184.139 592.5,179.5C 598.249,175.459 604.582,172.792 611.5,171.5C 620.489,170.667 629.489,170.501 638.5,171C 642.841,172.172 647.174,173.339 651.5,174.5C 657.202,178.855 663.202,182.855 669.5,186.5C 686.933,202.948 692.933,222.948 687.5,246.5C 687.5,247.167 687.5,247.833 687.5,248.5C 672.402,285.051 645.402,298.884 606.5,290C 604.512,289.062 602.512,288.228 600.5,287.5C 597.991,286.079 595.657,284.412 593.5,282.5C 575.891,269.12 566.558,251.286 565.5,229C 564.969,227.282 564.302,227.115 563.5,228.5C 562.363,236.457 561.697,244.457 561.5,252.5C 560.883,252.611 560.383,252.944 560,253.5C 559.831,268.672 559.331,283.672 558.5,298.5C 558.266,283.798 558.266,269.132 558.5,254.5C 557.344,248.846 556.177,243.179 555,237.5C 554.814,240.036 554.314,242.369 553.5,244.5C 553.898,231.014 556.231,218.014 560.5,205.5C 561.551,209.157 561.718,212.824 561,216.5C 561.667,215.167 562.333,215.167 563,216.5C 563.684,215.216 563.517,214.049 562.5,213C 563.825,213.148 564.992,212.982 566,212.5C 566.448,210.591 565.615,209.424 563.5,209C 565.569,208.676 565.902,207.842 564.5,206.5C 566.2,204.932 567.534,203.099 568.5,201C 570.917,192.523 574.583,184.19 579.5,176C 579.18,174.347 578.18,173.347 576.5,173C 577.772,170.956 577.439,169.122 575.5,167.5C 575.545,164.302 575.545,161.135 575.5,158C 574.258,154.643 573.424,154.81 573,158.5C 572.447,155.321 571.281,152.487 569.5,150C 570.167,149 570.833,148 571.5,147C 570.479,143.497 569.812,140.163 569.5,137C 571.02,134.404 571.853,131.571 572,128.5C 574.59,127.55 576.59,125.884 578,123.5C 578.833,124.333 579.667,125.167 580.5,126C 579.402,126.77 579.402,127.603 580.5,128.5 Z"/></g>
<g><path style="opacity:1" fill="#815a48" d="M 573.5,194.5 C 573.5,195.833 574.167,196.5 575.5,196.5C 573.425,199.646 571.592,202.979 570,206.5C 570.265,202.209 571.431,198.209 573.5,194.5 Z"/></g>
<g><path style="opacity:1" fill="#f8f8f8" d="M 679.5,240.5 C 678.5,240.5 677.5,240.5 676.5,240.5C 673.889,251.953 667.556,260.786 657.5,267C 631.858,279.939 609.358,275.772 590,254.5C 579.298,239.698 576.964,223.698 583,206.5C 584.256,202.984 586.256,199.984 589,197.5C 589.49,196.207 589.657,194.873 589.5,193.5C 605.482,178.245 624.148,174.079 645.5,181C 671.177,192.801 682.511,212.635 679.5,240.5 Z"/></g>
<g><path style="opacity:1" fill="#eab686" d="M 662.5,179.5 C 667.073,182.059 671.406,185.059 675.5,188.5C 676.805,191.638 678.971,193.971 682,195.5C 682.333,195.167 682.667,194.833 683,194.5C 682.737,195.951 682.904,197.284 683.5,198.5C 687.061,197.206 687.394,198.04 684.5,201C 685.5,202 686.5,203 687.5,204C 686.941,204.725 686.608,205.558 686.5,206.5C 690.36,219.276 691.36,232.276 689.5,245.5C 688.817,245.863 688.15,246.196 687.5,246.5C 692.933,222.948 686.933,202.948 669.5,186.5C 667.36,183.939 665.027,181.605 662.5,179.5 Z"/></g>
<g><path style="opacity:1" fill="#372616" d="M 728.5,198.5 C 717.293,222.029 717.96,245.029 730.5,267.5C 718.271,251.276 715.104,233.276 721,213.5C 722.476,207.881 724.976,202.881 728.5,198.5 Z"/></g>
<g><path style="opacity:1" fill="#1d1c19" d="M 642.5,216.5 C 661.449,217.27 667.949,226.604 662,244.5C 651.925,255.099 641.925,255.099 632,244.5C 626.577,231.774 630.077,222.44 642.5,216.5 Z"/></g>
<g><path style="opacity:1" fill="#f0f0ef" d="M 651.5,222.5 C 658.632,222.789 660.298,225.956 656.5,232C 648.03,232.531 646.364,229.364 651.5,222.5 Z"/></g>
<g><path style="opacity:1" fill="#472a1a" d="M 848.5,302.5 C 847.883,302.389 847.383,302.056 847,301.5C 846.831,289.993 846.331,278.659 845.5,267.5C 845.5,265.167 845.5,262.833 845.5,260.5C 845.876,251.765 845.376,243.098 844,234.5C 843.667,233.5 843.333,232.5 843,231.5C 842.171,236.137 841.671,240.804 841.5,245.5C 840.076,247.515 839.41,249.848 839.5,252.5C 837.416,256.336 835.083,260.003 832.5,263.5C 834.064,259.372 835.898,255.372 838,251.5C 839.343,241.483 840.676,231.483 842,221.5C 845.235,229.788 846.902,238.455 847,247.5C 847.857,265.825 848.357,284.158 848.5,302.5 Z"/></g>
<g><path style="opacity:1" fill="#3f291a" d="M 563.5,228.5 C 564.302,227.115 564.969,227.282 565.5,229C 566.558,251.286 575.891,269.12 593.5,282.5C 587.305,278.818 581.805,274.151 577,268.5C 573.535,262.565 570.368,256.565 567.5,250.5C 567.768,248.901 567.434,247.568 566.5,246.5C 565.695,240.335 564.695,234.335 563.5,228.5 Z"/></g>
<g><path style="opacity:1" fill="#1c1c18" d="M 756.5,216.5 C 773.994,217.5 780.494,226.5 776,243.5C 763.782,256.291 752.782,255.291 743,240.5C 740.961,228.728 745.461,220.728 756.5,216.5 Z"/></g>
<g><path style="opacity:1" fill="#e8e8e7" d="M 751.5,222.5 C 756.835,222.005 759.335,224.338 759,229.5C 756.525,232.524 753.525,233.19 750,231.5C 747.788,228.021 748.288,225.021 751.5,222.5 Z"/></g>
<g><path style="opacity:1" fill="#89553a" d="M 563.5,228.5 C 564.695,234.335 565.695,240.335 566.5,246.5C 565.732,245.737 565.232,244.737 565,243.5C 564.31,242.262 563.81,242.262 563.5,243.5C 562.833,246.5 562.167,249.5 561.5,252.5C 561.697,244.457 562.363,236.457 563.5,228.5 Z"/></g>
<g><path style="opacity:1" fill="#9d5936" d="M 845.5,260.5 C 844.718,256.326 844.051,251.992 843.5,247.5C 843.253,246.287 842.586,245.62 841.5,245.5C 841.671,240.804 842.171,236.137 843,231.5C 843.333,232.5 843.667,233.5 844,234.5C 845.376,243.098 845.876,251.765 845.5,260.5 Z"/></g>
<g><path style="opacity:1" fill="#e8b889" d="M 729.5,195.5 C 728.89,196.391 728.557,197.391 728.5,198.5C 724.976,202.881 722.476,207.881 721,213.5C 715.104,233.276 718.271,251.276 730.5,267.5C 731.075,269.411 732.075,271.078 733.5,272.5C 730.805,272.067 728.638,270.734 727,268.5C 724.969,272.776 723.469,277.276 722.5,282C 720.324,286.549 718.157,291.049 716,295.5C 714.67,296.582 713.17,297.249 711.5,297.5C 716.38,290.407 720.213,282.741 723,274.5C 723.667,271.833 723.667,269.167 723,266.5C 721.423,263.011 719.589,259.677 717.5,256.5C 719.624,257.031 721.124,258.365 722,260.5C 722.167,259.833 722.333,259.167 722.5,258.5C 716.926,246.129 715.092,233.129 717,219.5C 720.066,211.469 723.233,203.469 726.5,195.5C 727.5,195.5 728.5,195.5 729.5,195.5 Z"/></g>
<g><path style="opacity:1" fill="#d8dad8" d="M 819.5,195.5 C 837.763,216.528 839.263,238.861 824,262.5C 803.186,286.425 778.686,290.925 750.5,276C 737.32,266.474 729.653,253.641 727.5,237.5C 730.764,244.684 734.597,251.684 739,258.5C 745.062,264.118 751.896,268.618 759.5,272C 777.847,277.61 794.514,274.61 809.5,263C 829.595,242.87 832.928,220.37 819.5,195.5 Z"/></g>
<g><path style="opacity:1" fill="#a65936" d="M 563.5,243.5 C 563.105,262.834 562.605,282.168 562,301.5C 561.777,303.881 560.61,305.547 558.5,306.5C 558.892,304.821 559.392,303.154 560,301.5C 560.626,285.168 561.126,268.835 561.5,252.5C 562.167,249.5 562.833,246.5 563.5,243.5 Z"/></g>
<g><path style="opacity:1" fill="#bf531f" d="M 566.5,246.5 C 567.434,247.568 567.768,248.901 567.5,250.5C 572.175,275.01 585.508,293.176 607.5,305C 629.805,314.609 653.138,319.943 677.5,321C 711.893,322.903 745.893,320.237 779.5,313C 811.082,304.251 831.082,284.084 839.5,252.5C 839.41,249.848 840.076,247.515 841.5,245.5C 842.586,245.62 843.253,246.287 843.5,247.5C 844.051,251.992 844.718,256.326 845.5,260.5C 845.5,262.833 845.5,265.167 845.5,267.5C 845.333,279.838 845.5,292.171 846,304.5C 850.124,310.543 853.291,317.043 855.5,324C 855.836,325.03 856.503,325.53 857.5,325.5C 859.126,328.246 859.793,331.246 859.5,334.5C 863.456,351.39 861.956,367.723 855,383.5C 852.63,387.597 849.797,391.264 846.5,394.5C 845.504,394.414 844.671,394.748 844,395.5C 843.026,393.122 842.359,393.456 842,396.5C 838.742,398.88 835.576,401.38 832.5,404C 831.216,404.684 830.049,404.517 829,403.5C 828.517,404.448 828.351,405.448 828.5,406.5C 827.167,406.5 825.833,406.5 824.5,406.5C 824.5,407.5 824.5,408.5 824.5,409.5C 819.43,409.925 814.43,410.759 809.5,412C 803.843,412.499 798.176,412.666 792.5,412.5C 789.101,410.962 785.767,409.129 782.5,407C 781.101,405.938 780.101,404.605 779.5,403C 783.481,394.844 789.148,388.011 796.5,382.5C 795.568,384.854 794.235,387.021 792.5,389C 792.667,389.5 792.833,390 793,390.5C 794.356,389.62 795.856,389.286 797.5,389.5C 798.02,393.347 798.02,397.347 797.5,401.5C 802.019,401.602 806.352,402.102 810.5,403C 812.701,401.957 815.034,401.123 817.5,400.5C 818.743,398.167 820.409,397.5 822.5,398.5C 823.167,397.5 823.833,396.5 824.5,395.5C 825.796,397.336 826.63,399.336 827,401.5C 826.753,396.719 828.92,393.719 833.5,392.5C 831.076,390.286 831.743,389.286 835.5,389.5C 835.5,388.167 835.5,386.833 835.5,385.5C 837.451,385.773 838.951,385.107 840,383.5C 840.333,383.833 840.667,384.167 841,384.5C 841.346,382.782 841.846,381.115 842.5,379.5C 842.291,378.914 841.957,378.414 841.5,378C 842.772,376.693 843.772,375.193 844.5,373.5C 845.623,375.289 846.956,375.622 848.5,374.5C 847.307,372.473 845.64,370.973 843.5,370C 844.833,369 844.833,368 843.5,367C 844.325,365.312 845.325,365.145 846.5,366.5C 847.185,363.342 848.185,360.342 849.5,357.5C 849.081,356.328 848.415,355.328 847.5,354.5C 849.138,350.021 850.138,345.354 850.5,340.5C 849.313,338.79 849.646,337.29 851.5,336C 850.316,333.295 848.983,330.629 847.5,328C 847.759,326.739 848.426,325.739 849.5,325C 846.92,322.88 846.92,320.713 849.5,318.5C 848.939,316.574 848.773,314.574 849,312.5C 847.748,310.999 846.748,309.332 846,307.5C 844.556,310.055 843.389,312.721 842.5,315.5C 841.556,312.111 840.556,309.111 839.5,306.5C 836.638,305.57 834.305,303.903 832.5,301.5C 831.983,297.57 830.817,293.903 829,290.5C 828.333,293.167 827.667,293.167 827,290.5C 826.691,291.766 826.191,292.933 825.5,294C 826.336,295.243 826.003,296.41 824.5,297.5C 822.665,297.166 820.998,297.166 819.5,297.5C 816.507,298.993 814.507,301.326 813.5,304.5C 812.349,305.731 811.183,305.731 810,304.5C 809.118,307.552 807.284,309.886 804.5,311.5C 800.297,311.413 796.13,311.413 792,311.5C 789.433,312.27 786.933,313.27 784.5,314.5C 783.284,313.998 782.117,313.665 781,313.5C 775.458,315.447 769.958,317.447 764.5,319.5C 763.393,318.978 762.226,318.645 761,318.5C 756.217,318.816 751.884,320.149 748,322.5C 745.973,321.268 744.64,321.602 744,323.5C 742.127,322.911 740.46,323.578 739,325.5C 736.84,322.919 734.674,322.919 732.5,325.5C 730.878,323.561 729.044,323.228 727,324.5C 726.667,323.833 726.333,323.167 726,322.5C 723.175,324.188 720.009,325.021 716.5,325C 719.442,328.546 723.109,329.38 727.5,327.5C 729.519,328.133 729.853,329.133 728.5,330.5C 700.258,324.284 673.591,328.284 648.5,342.5C 640.493,342.334 632.493,342.5 624.5,343C 620.85,344.811 618.517,347.644 617.5,351.5C 616.833,357.346 616.167,363.346 615.5,369.5C 608.136,363.051 601.469,356.051 595.5,348.5C 595.822,346.278 595.155,344.444 593.5,343C 591.19,342.503 588.857,342.337 586.5,342.5C 587.066,340.922 588.066,339.588 589.5,338.5C 589.833,339.167 590.167,339.833 590.5,340.5C 591.962,339.529 593.295,339.862 594.5,341.5C 596.003,340.948 597.669,340.948 599.5,341.5C 599.33,342.822 599.663,343.989 600.5,345C 598.216,346.363 598.049,347.863 600,349.5C 601.77,347.582 603.937,347.082 606.5,348C 605.179,349.545 605.512,350.711 607.5,351.5C 608.308,351.192 608.975,350.692 609.5,350C 608.081,347.602 606.747,345.102 605.5,342.5C 606.522,341.646 607.355,340.646 608,339.5C 609.888,341.922 611.888,341.922 614,339.5C 614.333,340.167 614.667,340.833 615,341.5C 616.46,339.578 618.127,338.911 620,339.5C 620.368,340.91 621.201,341.91 622.5,342.5C 624.5,341.5 626.5,340.5 628.5,339.5C 629.842,340.902 630.676,340.569 631,338.5C 633.707,340.886 636.54,341.052 639.5,339C 638.833,338.667 638.167,338.333 637.5,338C 638.701,337.097 639.535,335.931 640,334.5C 642.058,335.109 642.891,336.109 642.5,337.5C 644.494,334.15 647.494,332.65 651.5,333C 649.055,329.283 649.721,328.783 653.5,331.5C 654.086,331.291 654.586,330.957 655,330.5C 655.249,331.624 655.749,332.624 656.5,333.5C 658.61,333.706 660.61,332.873 662.5,331C 661.269,329.817 661.269,328.651 662.5,327.5C 663.912,326.194 665.579,325.36 667.5,325C 665.423,324.193 663.589,323.026 662,321.5C 661.667,322.167 661.333,322.833 661,323.5C 658.385,322.689 655.552,322.689 652.5,323.5C 651.522,323.023 650.689,322.357 650,321.5C 648.672,326.563 647.672,326.229 647,320.5C 644.841,321.197 642.674,320.863 640.5,319.5C 639.304,319.846 639.304,320.346 640.5,321C 635.136,321.829 629.802,321.663 624.5,320.5C 624.192,319.692 623.692,319.025 623,318.5C 621.732,318.616 620.398,318.949 619,319.5C 617.667,318.833 616.333,318.167 615,317.5C 613.937,318.438 612.77,319.438 611.5,320.5C 610.522,320.023 609.689,319.357 609,318.5C 608.02,316.741 607.353,315.074 607,313.5C 606.667,313.833 606.333,314.167 606,314.5C 604.584,311.805 602.584,311.139 600,312.5C 598.992,308.632 596.992,305.299 594,302.5C 591.978,303.991 590.312,303.658 589,301.5C 587.612,302.554 586.112,302.72 584.5,302C 583.718,299.26 583.218,296.426 583,293.5C 582.311,294.357 581.478,295.023 580.5,295.5C 579.131,293.876 577.464,293.376 575.5,294C 573.624,295.017 571.624,295.851 569.5,296.5C 570.167,297.167 570.833,297.833 571.5,298.5C 569.604,299.466 567.604,299.799 565.5,299.5C 565.201,301.604 565.534,303.604 566.5,305.5C 568.191,303.744 570.191,303.244 572.5,304C 572.67,305.57 573.003,307.403 573.5,309.5C 572.167,309.5 570.833,309.5 569.5,309.5C 569.665,312.85 569.498,316.183 569,319.5C 567.383,318.464 567.216,317.297 568.5,316C 566.892,315.342 565.725,315.842 565,317.5C 564.667,317.167 564.333,316.833 564,316.5C 563.761,314.239 563.594,312.239 563.5,310.5C 559.174,310.831 556.84,313.165 556.5,317.5C 558.289,318.623 558.622,319.956 557.5,321.5C 556.482,320.807 555.482,320.141 554.5,319.5C 554.833,316.833 555.167,314.167 555.5,311.5C 556.263,309.632 557.263,307.965 558.5,306.5C 560.61,305.547 561.777,303.881 562,301.5C 562.605,282.168 563.105,262.834 563.5,243.5C 563.81,242.262 564.31,242.262 565,243.5C 565.232,244.737 565.732,245.737 566.5,246.5 Z"/></g>
<g><path style="opacity:1" fill="#3f2a19" d="M 717.5,256.5 C 719.589,259.677 721.423,263.011 723,266.5C 723.667,269.167 723.667,271.833 723,274.5C 720.213,282.741 716.38,290.407 711.5,297.5C 709.215,300.452 706.548,303.118 703.5,305.5C 701.062,304.069 699.396,302.069 698.5,299.5C 700.394,300.048 702.06,301.048 703.5,302.5C 705.516,300.316 707.683,298.316 710,296.5C 710.684,295.216 710.517,294.049 709.5,293C 710.449,292.383 711.282,292.549 712,293.5C 714.089,291.543 714.923,289.376 714.5,287C 723.323,277.173 723.656,267.173 715.5,257C 709.849,253.358 704.016,252.858 698,255.5C 697.586,255.043 697.086,254.709 696.5,254.5C 693.619,255.104 691.286,256.438 689.5,258.5C 689.5,257.833 689.5,257.167 689.5,256.5C 698.805,249.889 708.138,249.889 717.5,256.5 Z"/></g>
<g><path style="opacity:1" fill="#d9dbd9" d="M 589.5,193.5 C 589.657,194.873 589.49,196.207 589,197.5C 586.256,199.984 584.256,202.984 583,206.5C 576.964,223.698 579.298,239.698 590,254.5C 609.358,275.772 631.858,279.939 657.5,267C 667.556,260.786 673.889,251.953 676.5,240.5C 677.5,240.5 678.5,240.5 679.5,240.5C 673.889,265.161 658.556,279.661 633.5,284C 601.243,285.118 581.41,269.951 574,238.5C 571.728,220.811 576.895,205.811 589.5,193.5 Z"/></g>
<g><path style="opacity:1" fill="#f8b377" d="M 567.5,250.5 C 570.368,256.565 573.535,262.565 577,268.5C 581.805,274.151 587.305,278.818 593.5,282.5C 595.657,284.412 597.991,286.079 600.5,287.5C 601.574,289.284 603.24,290.451 605.5,291C 610.139,292.128 614.805,293.128 619.5,294C 628.215,294.195 636.881,294.695 645.5,295.5C 646.519,294.313 647.686,293.313 649,292.5C 649.691,294.891 650.691,294.891 652,292.5C 652.718,293.451 653.551,293.617 654.5,293C 655.956,291.255 657.289,289.422 658.5,287.5C 659.086,287.709 659.586,288.043 660,288.5C 662.703,285.462 665.703,282.795 669,280.5C 669.507,281.996 669.007,283.163 667.5,284C 669.59,284.268 670.924,283.268 671.5,281C 670.483,279.951 670.316,278.784 671,277.5C 673.5,275 676,272.5 678.5,270C 679.635,269.251 680.635,269.417 681.5,270.5C 682.1,273.349 683.433,275.682 685.5,277.5C 688.323,285.826 692.656,293.16 698.5,299.5C 699.396,302.069 701.062,304.069 703.5,305.5C 706.548,303.118 709.215,300.452 711.5,297.5C 713.17,297.249 714.67,296.582 716,295.5C 718.157,291.049 720.324,286.549 722.5,282C 723.469,277.276 724.969,272.776 727,268.5C 728.638,270.734 730.805,272.067 733.5,272.5C 734.694,276.532 737.194,279.532 741,281.5C 741.483,282.448 741.649,283.448 741.5,284.5C 745.004,286.465 748.67,288.298 752.5,290C 758.511,291.236 764.511,292.402 770.5,293.5C 779.594,293.828 788.594,293.162 797.5,291.5C 805.387,290.925 812.387,288.092 818.5,283C 821.973,279.527 825.473,276.027 829,272.5C 830.559,270.783 831.392,268.783 831.5,266.5C 832.11,265.609 832.443,264.609 832.5,263.5C 835.083,260.003 837.416,256.336 839.5,252.5C 831.082,284.084 811.082,304.251 779.5,313C 745.893,320.237 711.893,322.903 677.5,321C 653.138,319.943 629.805,314.609 607.5,305C 585.508,293.176 572.175,275.01 567.5,250.5 Z"/></g>
<g><path style="opacity:1" fill="#32302a" d="M 698.5,299.5 C 692.656,293.16 688.323,285.826 685.5,277.5C 684.45,272.886 684.283,268.22 685,263.5C 686.049,261.382 687.549,259.716 689.5,258.5C 691.286,256.438 693.619,255.104 696.5,254.5C 697.086,254.709 697.586,255.043 698,255.5C 704.016,252.858 709.849,253.358 715.5,257C 723.656,267.173 723.323,277.173 714.5,287C 714.923,289.376 714.089,291.543 712,293.5C 711.282,292.549 710.449,292.383 709.5,293C 710.517,294.049 710.684,295.216 710,296.5C 707.683,298.316 705.516,300.316 703.5,302.5C 702.06,301.048 700.394,300.048 698.5,299.5 Z"/></g>
<g><path style="opacity:1" fill="#666562" d="M 708.5,261.5 C 712.35,263.341 714.35,266.508 714.5,271C 714.2,276.43 712.367,281.264 709,285.5C 708.5,277.507 708.334,269.507 708.5,261.5 Z"/></g>
<g><path style="opacity:1" fill="#eab583" d="M 687.5,248.5 C 687.425,251.206 687.092,253.873 686.5,256.5C 687.5,256.5 688.5,256.5 689.5,256.5C 689.5,257.167 689.5,257.833 689.5,258.5C 687.549,259.716 686.049,261.382 685,263.5C 684.283,268.22 684.45,272.886 685.5,277.5C 683.433,275.682 682.1,273.349 681.5,270.5C 680.635,269.417 679.635,269.251 678.5,270C 676,272.5 673.5,275 671,277.5C 670.316,278.784 670.483,279.951 671.5,281C 670.924,283.268 669.59,284.268 667.5,284C 669.007,283.163 669.507,281.996 669,280.5C 665.703,282.795 662.703,285.462 660,288.5C 659.586,288.043 659.086,287.709 658.5,287.5C 657.289,289.422 655.956,291.255 654.5,293C 653.551,293.617 652.718,293.451 652,292.5C 650.691,294.891 649.691,294.891 649,292.5C 647.686,293.313 646.519,294.313 645.5,295.5C 636.881,294.695 628.215,294.195 619.5,294C 614.805,293.128 610.139,292.128 605.5,291C 603.24,290.451 601.574,289.284 600.5,287.5C 602.512,288.228 604.512,289.062 606.5,290C 645.402,298.884 672.402,285.051 687.5,248.5 Z"/></g>
<g><path style="opacity:1" fill="#e6b384" d="M 830.5,266.5 C 830.833,266.5 831.167,266.5 831.5,266.5C 831.392,268.783 830.559,270.783 829,272.5C 825.473,276.027 821.973,279.527 818.5,283C 812.387,288.092 805.387,290.925 797.5,291.5C 806.183,288.322 814.183,283.822 821.5,278C 825.503,274.845 828.503,271.012 830.5,266.5 Z"/></g>
<g><path style="opacity:1" fill="#e5b587" d="M 733.5,272.5 C 734.5,273.167 735.5,273.833 736.5,274.5C 741.074,279.566 746.407,283.733 752.5,287C 758.497,289.488 764.497,291.655 770.5,293.5C 764.511,292.402 758.511,291.236 752.5,290C 748.67,288.298 745.004,286.465 741.5,284.5C 741.649,283.448 741.483,282.448 741,281.5C 737.194,279.532 734.694,276.532 733.5,272.5 Z"/></g>
<g><path style="opacity:1" fill="#402d1c" d="M 830.5,266.5 C 828.503,271.012 825.503,274.845 821.5,278C 814.183,283.822 806.183,288.322 797.5,291.5C 788.594,293.162 779.594,293.828 770.5,293.5C 764.497,291.655 758.497,289.488 752.5,287C 746.407,283.733 741.074,279.566 736.5,274.5C 738.978,275.195 740.978,276.695 742.5,279C 746.653,280.471 750.32,282.804 753.5,286C 775.659,295.029 796.659,293.029 816.5,280C 817.337,278.989 817.67,277.822 817.5,276.5C 819.5,275.833 821.5,275.167 823.5,274.5C 823.178,272.278 823.845,270.444 825.5,269C 825.043,268.586 824.709,268.086 824.5,267.5C 826.396,266.534 828.396,266.201 830.5,266.5 Z"/></g>
<g><path style="opacity:1" fill="#c6511e" d="M 796.5,382.5 C 805.164,373.001 813.664,363.335 822,353.5C 823.318,350.594 823.652,347.594 823,344.5C 822.329,343.748 821.496,343.414 820.5,343.5C 818.396,343.201 816.396,343.534 814.5,344.5C 809.581,352.749 803.581,360.082 796.5,366.5C 795.167,366.5 793.833,366.5 792.5,366.5C 791.935,361.851 791.435,357.184 791,352.5C 790.617,351.944 790.117,351.611 789.5,351.5C 789.326,349.139 788.993,346.806 788.5,344.5C 778.634,342.707 768.634,342.041 758.5,342.5C 748.879,337.349 738.879,333.349 728.5,330.5C 729.853,329.133 729.519,328.133 727.5,327.5C 723.109,329.38 719.442,328.546 716.5,325C 720.009,325.021 723.175,324.188 726,322.5C 726.333,323.167 726.667,323.833 727,324.5C 729.044,323.228 730.878,323.561 732.5,325.5C 734.674,322.919 736.84,322.919 739,325.5C 740.46,323.578 742.127,322.911 744,323.5C 744.64,321.602 745.973,321.268 748,322.5C 751.884,320.149 756.217,318.816 761,318.5C 762.226,318.645 763.393,318.978 764.5,319.5C 769.958,317.447 775.458,315.447 781,313.5C 782.117,313.665 783.284,313.998 784.5,314.5C 786.933,313.27 789.433,312.27 792,311.5C 796.13,311.413 800.297,311.413 804.5,311.5C 807.284,309.886 809.118,307.552 810,304.5C 811.183,305.731 812.349,305.731 813.5,304.5C 814.507,301.326 816.507,298.993 819.5,297.5C 820.998,297.166 822.665,297.166 824.5,297.5C 826.003,296.41 826.336,295.243 825.5,294C 826.191,292.933 826.691,291.766 827,290.5C 827.667,293.167 828.333,293.167 829,290.5C 830.817,293.903 831.983,297.57 832.5,301.5C 834.305,303.903 836.638,305.57 839.5,306.5C 840.556,309.111 841.556,312.111 842.5,315.5C 843.389,312.721 844.556,310.055 846,307.5C 846.748,309.332 847.748,310.999 849,312.5C 848.773,314.574 848.939,316.574 849.5,318.5C 846.92,320.713 846.92,322.88 849.5,325C 848.426,325.739 847.759,326.739 847.5,328C 848.983,330.629 850.316,333.295 851.5,336C 849.646,337.29 849.313,338.79 850.5,340.5C 850.138,345.354 849.138,350.021 847.5,354.5C 848.415,355.328 849.081,356.328 849.5,357.5C 848.185,360.342 847.185,363.342 846.5,366.5C 845.325,365.145 844.325,365.312 843.5,367C 844.833,368 844.833,369 843.5,370C 845.64,370.973 847.307,372.473 848.5,374.5C 846.956,375.622 845.623,375.289 844.5,373.5C 843.772,375.193 842.772,376.693 841.5,378C 841.957,378.414 842.291,378.914 842.5,379.5C 841.846,381.115 841.346,382.782 841,384.5C 840.667,384.167 840.333,383.833 840,383.5C 838.951,385.107 837.451,385.773 835.5,385.5C 835.5,386.833 835.5,388.167 835.5,389.5C 831.743,389.286 831.076,390.286 833.5,392.5C 828.92,393.719 826.753,396.719 827,401.5C 826.63,399.336 825.796,397.336 824.5,395.5C 823.833,396.5 823.167,397.5 822.5,398.5C 820.409,397.5 818.743,398.167 817.5,400.5C 815.034,401.123 812.701,401.957 810.5,403C 806.352,402.102 802.019,401.602 797.5,401.5C 798.02,397.347 798.02,393.347 797.5,389.5C 795.856,389.286 794.356,389.62 793,390.5C 792.833,390 792.667,389.5 792.5,389C 794.235,387.021 795.568,384.854 796.5,382.5 Z"/></g>
<g><path style="opacity:1" fill="#c7511e" d="M 586.5,342.5 C 585.127,342.343 583.793,342.51 582.5,343C 582.833,343.333 583.167,343.667 583.5,344C 582.773,345.399 582.273,346.899 582,348.5C 581.667,348.167 581.333,347.833 581,347.5C 580.692,348.308 580.192,348.975 579.5,349.5C 577.827,347.914 575.827,347.247 573.5,347.5C 573.5,344.167 573.5,340.833 573.5,337.5C 571.856,337.286 570.356,337.62 569,338.5C 566.168,334.718 564.835,330.384 565,325.5C 564.047,327.592 562.714,327.925 561,326.5C 558.934,330.506 557.434,330.173 556.5,325.5C 555.618,326.76 554.618,327.926 553.5,329C 555.271,329.535 555.604,330.369 554.5,331.5C 552.129,331.108 551.462,330.108 552.5,328.5C 552.405,325.308 553.071,322.308 554.5,319.5C 555.482,320.141 556.482,320.807 557.5,321.5C 558.622,319.956 558.289,318.623 556.5,317.5C 556.84,313.165 559.174,310.831 563.5,310.5C 563.594,312.239 563.761,314.239 564,316.5C 564.333,316.833 564.667,317.167 565,317.5C 565.725,315.842 566.892,315.342 568.5,316C 567.216,317.297 567.383,318.464 569,319.5C 569.498,316.183 569.665,312.85 569.5,309.5C 570.833,309.5 572.167,309.5 573.5,309.5C 573.003,307.403 572.67,305.57 572.5,304C 570.191,303.244 568.191,303.744 566.5,305.5C 565.534,303.604 565.201,301.604 565.5,299.5C 567.604,299.799 569.604,299.466 571.5,298.5C 570.833,297.833 570.167,297.167 569.5,296.5C 571.624,295.851 573.624,295.017 575.5,294C 577.464,293.376 579.131,293.876 580.5,295.5C 581.478,295.023 582.311,294.357 583,293.5C 583.218,296.426 583.718,299.26 584.5,302C 586.112,302.72 587.612,302.554 589,301.5C 590.312,303.658 591.978,303.991 594,302.5C 596.992,305.299 598.992,308.632 600,312.5C 602.584,311.139 604.584,311.805 606,314.5C 606.333,314.167 606.667,313.833 607,313.5C 607.353,315.074 608.02,316.741 609,318.5C 609.689,319.357 610.522,320.023 611.5,320.5C 612.77,319.438 613.937,318.438 615,317.5C 616.333,318.167 617.667,318.833 619,319.5C 620.398,318.949 621.732,318.616 623,318.5C 623.692,319.025 624.192,319.692 624.5,320.5C 629.802,321.663 635.136,321.829 640.5,321C 639.304,320.346 639.304,319.846 640.5,319.5C 642.674,320.863 644.841,321.197 647,320.5C 647.672,326.229 648.672,326.563 650,321.5C 650.689,322.357 651.522,323.023 652.5,323.5C 655.552,322.689 658.385,322.689 661,323.5C 661.333,322.833 661.667,322.167 662,321.5C 663.589,323.026 665.423,324.193 667.5,325C 665.579,325.36 663.912,326.194 662.5,327.5C 661.269,328.651 661.269,329.817 662.5,331C 660.61,332.873 658.61,333.706 656.5,333.5C 655.749,332.624 655.249,331.624 655,330.5C 654.586,330.957 654.086,331.291 653.5,331.5C 649.721,328.783 649.055,329.283 651.5,333C 647.494,332.65 644.494,334.15 642.5,337.5C 642.891,336.109 642.058,335.109 640,334.5C 639.535,335.931 638.701,337.097 637.5,338C 638.167,338.333 638.833,338.667 639.5,339C 636.54,341.052 633.707,340.886 631,338.5C 630.676,340.569 629.842,340.902 628.5,339.5C 626.5,340.5 624.5,341.5 622.5,342.5C 621.201,341.91 620.368,340.91 620,339.5C 618.127,338.911 616.46,339.578 615,341.5C 614.667,340.833 614.333,340.167 614,339.5C 611.888,341.922 609.888,341.922 608,339.5C 607.355,340.646 606.522,341.646 605.5,342.5C 606.747,345.102 608.081,347.602 609.5,350C 608.975,350.692 608.308,351.192 607.5,351.5C 605.512,350.711 605.179,349.545 606.5,348C 603.937,347.082 601.77,347.582 600,349.5C 598.049,347.863 598.216,346.363 600.5,345C 599.663,343.989 599.33,342.822 599.5,341.5C 597.669,340.948 596.003,340.948 594.5,341.5C 593.295,339.862 591.962,339.529 590.5,340.5C 590.167,339.833 589.833,339.167 589.5,338.5C 588.066,339.588 587.066,340.922 586.5,342.5 Z"/></g>
<g><path style="opacity:1" fill="#a45b36" d="M 845.5,267.5 C 846.331,278.659 846.831,289.993 847,301.5C 847.383,302.056 847.883,302.389 848.5,302.5C 851.205,308.568 853.872,314.568 856.5,320.5C 856.629,322.216 856.962,323.883 857.5,325.5C 856.503,325.53 855.836,325.03 855.5,324C 853.291,317.043 850.124,310.543 846,304.5C 845.5,292.171 845.333,279.838 845.5,267.5 Z"/></g>
<g><path style="opacity:1" fill="#c1551f" d="M 586.5,342.5 C 582.016,348.649 582.683,354.149 588.5,359C 589.448,359.483 590.448,359.649 591.5,359.5C 591.892,361.179 592.392,362.846 593,364.5C 598.074,368.75 602.907,373.083 607.5,377.5C 613.071,384.577 619.238,391.244 626,397.5C 627.31,400.503 627.476,403.503 626.5,406.5C 612.545,412.127 598.211,412.961 583.5,409C 577.321,406.263 571.321,403.429 565.5,400.5C 563.246,399.585 561.246,398.252 559.5,396.5C 558.167,394.167 556.833,391.833 555.5,389.5C 547.134,374.63 544.301,358.63 547,341.5C 548.594,336.831 550.427,332.498 552.5,328.5C 551.462,330.108 552.129,331.108 554.5,331.5C 555.604,330.369 555.271,329.535 553.5,329C 554.618,327.926 555.618,326.76 556.5,325.5C 557.434,330.173 558.934,330.506 561,326.5C 562.714,327.925 564.047,327.592 565,325.5C 564.835,330.384 566.168,334.718 569,338.5C 570.356,337.62 571.856,337.286 573.5,337.5C 573.5,340.833 573.5,344.167 573.5,347.5C 575.827,347.247 577.827,347.914 579.5,349.5C 580.192,348.975 580.692,348.308 581,347.5C 581.333,347.833 581.667,348.167 582,348.5C 582.273,346.899 582.773,345.399 583.5,344C 583.167,343.667 582.833,343.333 582.5,343C 583.793,342.51 585.127,342.343 586.5,342.5 Z"/></g>
<g><path style="opacity:1" fill="#ed964f" d="M 728.5,330.5 C 738.879,333.349 748.879,337.349 758.5,342.5C 758.833,343.167 759.167,343.833 759.5,344.5C 722.167,344.5 684.833,344.5 647.5,344.5C 647.833,343.833 648.167,343.167 648.5,342.5C 673.591,328.284 700.258,324.284 728.5,330.5 Z"/></g>
<g><path style="opacity:1" fill="#ad5934" d="M 555.5,311.5 C 555.167,314.167 554.833,316.833 554.5,319.5C 553.071,322.308 552.405,325.308 552.5,328.5C 550.427,332.498 548.594,336.831 547,341.5C 544.301,358.63 547.134,374.63 555.5,389.5C 553.806,388.473 552.473,387.139 551.5,385.5C 545.358,372.565 543.191,358.898 545,344.5C 546.846,332.803 550.346,321.803 555.5,311.5 Z"/></g>
<g><path style="opacity:1" fill="#b1572a" d="M 648.5,342.5 C 648.167,343.167 647.833,343.833 647.5,344.5C 639.493,344.334 631.493,344.5 623.5,345C 621.859,346.129 620.859,347.629 620.5,349.5C 619.167,349.5 618.5,350.167 618.5,351.5C 618.167,351.5 617.833,351.5 617.5,351.5C 618.517,347.644 620.85,344.811 624.5,343C 632.493,342.5 640.493,342.334 648.5,342.5 Z"/></g>
<g><path style="opacity:1" fill="#af592c" d="M 758.5,342.5 C 768.634,342.041 778.634,342.707 788.5,344.5C 788.993,346.806 789.326,349.139 789.5,351.5C 788.833,350.833 788.167,350.167 787.5,349.5C 786.5,348.833 785.5,348.167 784.5,347.5C 783.713,345.896 782.38,345.229 780.5,345.5C 773.687,344.509 766.687,344.175 759.5,344.5C 759.167,343.833 758.833,343.167 758.5,342.5 Z"/></g>
<g><path style="opacity:1" fill="#89805d" d="M 647.5,344.5 C 684.833,344.5 722.167,344.5 759.5,344.5C 766.687,344.175 773.687,344.509 780.5,345.5C 728.499,345.333 676.499,345.5 624.5,346C 623.295,347.376 621.962,348.542 620.5,349.5C 620.859,347.629 621.859,346.129 623.5,345C 631.493,344.5 639.493,344.334 647.5,344.5 Z"/></g>
<g><path style="opacity:1" fill="#346356" d="M 780.5,345.5 C 782.38,345.229 783.713,345.896 784.5,347.5C 731.518,346.355 678.518,346.188 625.5,347C 623.983,348.685 622.316,350.185 620.5,351.5C 619.502,359.472 619.169,367.472 619.5,375.5C 618.833,375.5 618.5,375.167 618.5,374.5C 618.5,366.833 618.5,359.167 618.5,351.5C 618.5,350.167 619.167,349.5 620.5,349.5C 621.962,348.542 623.295,347.376 624.5,346C 676.499,345.5 728.499,345.333 780.5,345.5 Z"/></g>
<g><path style="opacity:1" fill="#472717" d="M 561.5,252.5 C 561.126,268.835 560.626,285.168 560,301.5C 559.392,303.154 558.892,304.821 558.5,306.5C 557.263,307.965 556.263,309.632 555.5,311.5C 550.346,321.803 546.846,332.803 545,344.5C 543.191,358.898 545.358,372.565 551.5,385.5C 547.375,381.401 544.875,376.401 544,370.5C 543.239,357.804 543.572,345.138 545,332.5C 549.206,321.083 553.706,309.75 558.5,298.5C 559.331,283.672 559.831,268.672 560,253.5C 560.383,252.944 560.883,252.611 561.5,252.5 Z"/></g>
<g><path style="opacity:1" fill="#3b2c22" d="M 595.5,348.5 C 601.707,358.047 609.04,366.713 617.5,374.5C 616.328,375.705 614.995,375.705 613.5,374.5C 610.99,372.813 609.49,370.48 609,367.5C 607.316,365.649 605.483,363.982 603.5,362.5C 602.618,363.76 601.618,364.926 600.5,366C 602.608,366.36 604.608,367.027 606.5,368C 605.643,368.689 604.977,369.522 604.5,370.5C 606.616,372.4 607.949,374.733 608.5,377.5C 608.167,377.5 607.833,377.5 607.5,377.5C 602.509,371.177 597.176,365.177 591.5,359.5C 589.689,356.556 587.856,353.556 586,350.5C 584.833,345 587,342.833 592.5,344C 593.399,345.652 594.399,347.152 595.5,348.5 Z"/></g>
<g><path style="opacity:1" fill="#0f747b" d="M 784.5,347.5 C 785.5,348.167 786.5,348.833 787.5,349.5C 788.377,358.133 788.711,366.8 788.5,375.5C 786.14,378.527 783.473,381.194 780.5,383.5C 780.5,378.167 780.5,372.833 780.5,367.5C 729.167,367.5 677.833,367.5 626.5,367.5C 626.5,372.5 626.5,377.5 626.5,382.5C 623.861,380.527 621.527,378.194 619.5,375.5C 619.169,367.472 619.502,359.472 620.5,351.5C 622.316,350.185 623.983,348.685 625.5,347C 678.518,346.188 731.518,346.355 784.5,347.5 Z"/></g>
<g><path style="opacity:1" fill="#b4582c" d="M 586.5,342.5 C 588.857,342.337 591.19,342.503 593.5,343C 595.155,344.444 595.822,346.278 595.5,348.5C 594.399,347.152 593.399,345.652 592.5,344C 587,342.833 584.833,345 586,350.5C 587.856,353.556 589.689,356.556 591.5,359.5C 590.448,359.649 589.448,359.483 588.5,359C 582.683,354.149 582.016,348.649 586.5,342.5 Z"/></g>
<g><path style="opacity:1" fill="#d5f4f4" d="M 643.5,352.5 C 649.488,352.664 650.821,355.164 647.5,360C 645.888,360.72 644.388,360.554 643,359.5C 642.297,357.071 642.463,354.738 643.5,352.5 Z"/></g>
<g><path style="opacity:1" fill="#42a0aa" d="M 657.5,352.5 C 663.488,352.664 664.821,355.164 661.5,360C 655.202,360.495 653.868,357.995 657.5,352.5 Z"/></g>
<g><path style="opacity:1" fill="#a95d38" d="M 859.5,334.5 C 865.858,355.581 862.858,375.248 850.5,393.5C 849.167,394.5 847.833,395.5 846.5,396.5C 846.5,395.833 846.5,395.167 846.5,394.5C 849.797,391.264 852.63,387.597 855,383.5C 861.956,367.723 863.456,351.39 859.5,334.5 Z"/></g>
<g><path style="opacity:1" fill="#daf3f3" d="M 630.5,352.5 C 636.488,352.664 637.821,355.164 634.5,360C 628.403,360.147 627.07,357.647 630.5,352.5 Z"/></g>
<g><path style="opacity:1" fill="#a35933" d="M 591.5,359.5 C 597.176,365.177 602.509,371.177 607.5,377.5C 602.907,373.083 598.074,368.75 593,364.5C 592.392,362.846 591.892,361.179 591.5,359.5 Z"/></g>
<g><path style="opacity:1" fill="#b8592c" d="M 789.5,351.5 C 790.117,351.611 790.617,351.944 791,352.5C 791.435,357.184 791.935,361.851 792.5,366.5C 793.833,366.5 795.167,366.5 796.5,366.5C 794.5,368.833 792.5,371.167 790.5,373.5C 789.508,366.352 789.175,359.019 789.5,351.5 Z"/></g>
<g><path style="opacity:1" fill="#a25e3a" d="M 595.5,348.5 C 601.469,356.051 608.136,363.051 615.5,369.5C 616.167,363.346 616.833,357.346 617.5,351.5C 617.833,351.5 618.167,351.5 618.5,351.5C 618.5,359.167 618.5,366.833 618.5,374.5C 618.167,374.5 617.833,374.5 617.5,374.5C 609.04,366.713 601.707,358.047 595.5,348.5 Z"/></g>
<g><path style="opacity:1" fill="#392921" d="M 820.5,343.5 C 821.783,346.843 821.616,350.176 820,353.5C 810.363,364.971 800.196,375.971 789.5,386.5C 789.5,384.833 789.5,383.167 789.5,381.5C 790.552,381.649 791.552,381.483 792.5,381C 793.879,377.353 796.545,375.186 800.5,374.5C 800.343,373.127 800.51,371.793 801,370.5C 801.333,370.833 801.667,371.167 802,371.5C 802.699,369.926 802.365,368.593 801,367.5C 797.544,370.802 793.711,373.469 789.5,375.5C 789.833,374.833 790.167,374.167 790.5,373.5C 792.5,371.167 794.5,368.833 796.5,366.5C 803.581,360.082 809.581,352.749 814.5,344.5C 816.396,343.534 818.396,343.201 820.5,343.5 Z"/></g>
<g><path style="opacity:1" fill="#d7f6f6" d="M 780.5,383.5 C 780.5,384.167 780.167,384.5 779.5,384.5C 779.805,379.238 779.471,374.072 778.5,369C 728.168,368.5 677.834,368.333 627.5,368.5C 627.5,373.5 627.5,378.5 627.5,383.5C 626.833,383.5 626.5,383.167 626.5,382.5C 626.5,377.5 626.5,372.5 626.5,367.5C 677.833,367.5 729.167,367.5 780.5,367.5C 780.5,372.833 780.5,378.167 780.5,383.5 Z"/></g>
<g><path style="opacity:1" fill="#83674b" d="M 787.5,349.5 C 788.167,350.167 788.833,350.833 789.5,351.5C 789.175,359.019 789.508,366.352 790.5,373.5C 790.167,374.167 789.833,374.833 789.5,375.5C 789.167,375.5 788.833,375.5 788.5,375.5C 788.711,366.8 788.377,358.133 787.5,349.5 Z"/></g>
<g><path style="opacity:1" fill="#f6f8f8" d="M 779.5,384.5 C 776.192,387.775 773.358,391.442 771,395.5C 766.935,405.042 769.435,412.375 778.5,417.5C 778.5,431.5 778.5,445.5 778.5,459.5C 728.16,459.269 677.827,459.602 627.5,460.5C 626.519,446.912 626.185,433.246 626.5,419.5C 629.688,417.31 632.855,414.976 636,412.5C 640.667,406.5 640.667,400.5 636,394.5C 632.951,390.957 630.118,387.291 627.5,383.5C 627.5,378.5 627.5,373.5 627.5,368.5C 677.834,368.333 728.168,368.5 778.5,369C 779.471,374.072 779.805,379.238 779.5,384.5 Z"/></g>
<g><path style="opacity:1" fill="#422a1b" d="M 856.5,320.5 C 857.429,321.936 858.595,323.269 860,324.5C 863.531,339.616 864.864,354.949 864,370.5C 861.558,379.385 857.058,387.051 850.5,393.5C 862.858,375.248 865.858,355.581 859.5,334.5C 859.793,331.246 859.126,328.246 857.5,325.5C 856.962,323.883 856.629,322.216 856.5,320.5 Z"/></g>
<g><path style="opacity:1" fill="#502917" d="M 608.5,377.5 C 613.5,380.5 617.5,384.5 620.5,389.5C 616.167,385.833 612.167,381.833 608.5,377.5 Z"/></g>
<g><path style="opacity:1" fill="#c7511e" d="M 589.5,373.5 C 592.632,375.136 595.299,377.302 597.5,380C 596.5,381 595.5,382 594.5,383C 597.236,384.524 599.236,386.691 600.5,389.5C 601.281,388.271 601.781,386.938 602,385.5C 603.307,386.772 604.807,387.772 606.5,388.5C 604.525,391.609 602.192,394.443 599.5,397C 598.258,397.311 597.258,396.811 596.5,395.5C 594.281,398.574 591.281,399.907 587.5,399.5C 587.762,400.978 587.429,402.311 586.5,403.5C 585.253,401.994 585.253,400.494 586.5,399C 585.975,398.308 585.308,397.808 584.5,397.5C 581.608,398.394 578.941,399.728 576.5,401.5C 574.999,400.248 573.332,399.248 571.5,398.5C 572.833,397.833 574.167,397.167 575.5,396.5C 574.609,395.41 573.609,395.41 572.5,396.5C 571.295,394.862 569.962,394.529 568.5,395.5C 568.167,395.167 567.833,394.833 567.5,394.5C 569.978,392.564 569.978,390.564 567.5,388.5C 564.36,387.909 561.36,387.076 558.5,386C 559.109,383.942 560.109,383.109 561.5,383.5C 560.65,381.379 559.65,379.212 558.5,377C 559.552,375.881 560.719,375.381 562,375.5C 562.333,378.833 562.667,382.167 563,385.5C 563.308,384.692 563.808,384.025 564.5,383.5C 566.852,386.073 569.519,386.74 572.5,385.5C 572.833,389.5 573.167,389.5 573.5,385.5C 575.124,385.64 576.29,384.973 577,383.5C 578.309,385.891 579.309,385.891 580,383.5C 581.685,385.988 583.019,385.655 584,382.5C 585,382.833 586,383.167 587,383.5C 587.333,382.167 587.667,380.833 588,379.5C 588.333,380.167 588.667,380.833 589,381.5C 589.9,380.23 591.066,379.23 592.5,378.5C 591.048,377.06 590.048,375.394 589.5,373.5 Z"/></g>
<g><path style="opacity:1" fill="#197179" d="M 638.5,379.5 C 654.167,379.5 669.833,379.5 685.5,379.5C 685.5,382.167 685.5,384.833 685.5,387.5C 670.163,387.667 654.83,387.5 639.5,387C 638.565,384.619 638.232,382.119 638.5,379.5 Z"/></g>
<g><path style="opacity:1" fill="#a35a36" d="M 820.5,343.5 C 821.496,343.414 822.329,343.748 823,344.5C 823.652,347.594 823.318,350.594 822,353.5C 813.664,363.335 805.164,373.001 796.5,382.5C 789.148,388.011 783.481,394.844 779.5,403C 780.101,404.605 781.101,405.938 782.5,407C 785.767,409.129 789.101,410.962 792.5,412.5C 789.312,412.382 786.312,411.549 783.5,410C 777.465,408.001 775.965,404.168 779,398.5C 782.365,394.307 785.865,390.307 789.5,386.5C 800.196,375.971 810.363,364.971 820,353.5C 821.616,350.176 821.783,346.843 820.5,343.5 Z"/></g>
<g><path style="opacity:1" fill="#1b6e77" d="M 654.5,394.5 C 672.503,394.333 690.503,394.5 708.5,395C 709.435,397.381 709.768,399.881 709.5,402.5C 691.167,402.5 672.833,402.5 654.5,402.5C 654.5,399.833 654.5,397.167 654.5,394.5 Z"/></g>
<g><path style="opacity:1" fill="#6ba5a8" d="M 718.5,394.5 C 729.167,394.5 739.833,394.5 750.5,394.5C 750.5,397.167 750.5,399.833 750.5,402.5C 739.833,402.5 729.167,402.5 718.5,402.5C 718.5,399.833 718.5,397.167 718.5,394.5 Z"/></g>
<g><path style="opacity:1" fill="#b4572c" d="M 846.5,394.5 C 846.5,395.167 846.5,395.833 846.5,396.5C 841.435,401.213 835.768,405.213 829.5,408.5C 827.883,409.038 826.216,409.371 824.5,409.5C 824.5,408.5 824.5,407.5 824.5,406.5C 825.833,406.5 827.167,406.5 828.5,406.5C 828.351,405.448 828.517,404.448 829,403.5C 830.049,404.517 831.216,404.684 832.5,404C 835.576,401.38 838.742,398.88 842,396.5C 842.359,393.456 843.026,393.122 844,395.5C 844.671,394.748 845.504,394.414 846.5,394.5 Z"/></g>
<g><path style="opacity:1" fill="#46291a" d="M 559.5,396.5 C 561.246,398.252 563.246,399.585 565.5,400.5C 566.716,402.451 568.382,403.951 570.5,405C 574.437,406.572 578.104,408.405 581.5,410.5C 579.473,410.662 577.473,410.495 575.5,410C 573.197,407.866 570.531,406.366 567.5,405.5C 565.242,403.502 562.909,401.502 560.5,399.5C 559.873,398.583 559.539,397.583 559.5,396.5 Z"/></g>
<g><path style="opacity:1" fill="#ab5a34" d="M 607.5,377.5 C 607.833,377.5 608.167,377.5 608.5,377.5C 612.167,381.833 616.167,385.833 620.5,389.5C 623.498,392.667 626.331,396 629,399.5C 630.202,401.677 630.702,404.011 630.5,406.5C 625.775,409.193 620.775,411.36 615.5,413C 603.967,414.215 592.634,413.382 581.5,410.5C 578.104,408.405 574.437,406.572 570.5,405C 568.382,403.951 566.716,402.451 565.5,400.5C 571.321,403.429 577.321,406.263 583.5,409C 598.211,412.961 612.545,412.127 626.5,406.5C 627.476,403.503 627.31,400.503 626,397.5C 619.238,391.244 613.071,384.577 607.5,377.5 Z"/></g>
<g><path style="opacity:1" fill="#a95933" d="M 824.5,409.5 C 823.319,411.067 821.653,411.901 819.5,412C 812.547,413.163 805.547,413.663 798.5,413.5C 796.265,413.795 794.265,413.461 792.5,412.5C 798.176,412.666 803.843,412.499 809.5,412C 814.43,410.759 819.43,409.925 824.5,409.5 Z"/></g>
<g><path style="opacity:1" fill="#492918" d="M 630.5,406.5 C 630.586,407.496 630.252,408.329 629.5,409C 625.469,411.455 621.136,413.121 616.5,414C 606.833,414.667 597.167,414.667 587.5,414C 585.121,413.284 583.121,412.117 581.5,410.5C 592.634,413.382 603.967,414.215 615.5,413C 620.775,411.36 625.775,409.193 630.5,406.5 Z"/></g>
<g><path style="opacity:1" fill="#522b17" d="M 829.5,408.5 C 827.786,410.087 825.786,411.421 823.5,412.5C 815.093,414.629 806.76,414.962 798.5,413.5C 805.547,413.663 812.547,413.163 819.5,412C 821.653,411.901 823.319,411.067 824.5,409.5C 826.216,409.371 827.883,409.038 829.5,408.5 Z"/></g>
<g><path style="opacity:1" fill="#6ca2a6" d="M 698.5,410.5 C 708.5,410.5 718.5,410.5 728.5,410.5C 728.5,413.167 728.5,415.833 728.5,418.5C 718.828,418.666 709.161,418.5 699.5,418C 698.565,415.619 698.232,413.119 698.5,410.5 Z"/></g>
<g><path style="opacity:1" fill="#bd5623" d="M 840.5,423.5 C 838.149,433.224 834.815,442.557 830.5,451.5C 826.248,457.599 821.748,463.599 817,469.5C 811.06,474.083 805.56,479.083 800.5,484.5C 793.26,488.953 785.593,492.619 777.5,495.5C 778.124,493.246 779.457,491.579 781.5,490.5C 788.799,486.893 796.133,483.226 803.5,479.5C 803.833,475.833 805.833,473.833 809.5,473.5C 808.674,472.549 808.508,471.549 809,470.5C 810.135,470.273 811.302,469.94 812.5,469.5C 811.855,468.268 811.689,466.935 812,465.5C 810.989,466.337 809.822,466.67 808.5,466.5C 808.5,465.5 808.5,464.5 808.5,463.5C 809.5,463.5 810.5,463.5 811.5,463.5C 811.561,458.678 812.727,458.345 815,462.5C 817.878,461.209 817.712,459.709 814.5,458C 814.333,456.17 814.666,454.17 815.5,452C 814.382,449.941 813.715,447.774 813.5,445.5C 817.515,445.724 818.181,444.557 815.5,442C 816.424,440.85 816.424,439.85 815.5,439C 816.227,437.601 816.727,436.101 817,434.5C 819.501,437.045 820.001,436.545 818.5,433C 818.896,431.103 819.896,429.603 821.5,428.5C 820.098,427.158 820.431,426.324 822.5,426C 821.646,424.978 820.646,424.145 819.5,423.5C 815.235,424.439 810.902,424.772 806.5,424.5C 806.81,427.713 806.477,430.713 805.5,433.5C 805.5,430.167 805.5,426.833 805.5,423.5C 812.599,423.539 819.599,422.706 826.5,421C 827.942,420.623 828.942,419.79 829.5,418.5C 833.101,417.537 836.767,416.87 840.5,416.5C 840.5,418.833 840.5,421.167 840.5,423.5 Z"/></g>
<g><path style="opacity:1" fill="#ad5c35" d="M 841.5,423.5 C 841.167,423.5 840.833,423.5 840.5,423.5C 840.5,421.167 840.5,418.833 840.5,416.5C 836.767,416.87 833.101,417.537 829.5,418.5C 833.854,416.368 838.187,414.035 842.5,411.5C 842.833,412.167 843.167,412.833 843.5,413.5C 842.512,416.782 841.846,420.115 841.5,423.5 Z"/></g>
<g><path style="opacity:1" fill="#432819" d="M 570.5,413.5 C 585.49,419.608 601.157,421.941 617.5,420.5C 617.5,420.833 617.5,421.167 617.5,421.5C 612.178,421.98 606.845,422.313 601.5,422.5C 592.601,422.109 583.935,420.443 575.5,417.5C 575.167,417.5 574.833,417.5 574.5,417.5C 572.861,416.527 571.527,415.194 570.5,413.5 Z"/></g>
<g><path style="opacity:1" fill="#d9f1f1" d="M 654.5,408.5 C 666.838,408.333 679.171,408.5 691.5,409C 692.622,412.409 692.789,415.909 692,419.5C 679.242,420.655 666.409,420.822 653.5,420C 651.833,419 650.5,417.667 649.5,416C 651.569,415.676 651.902,414.842 650.5,413.5C 651.612,411.581 652.946,409.914 654.5,408.5 Z"/></g>
<g><path style="opacity:1" fill="#146b74" d="M 654.5,410.5 C 666.505,410.333 678.505,410.5 690.5,411C 691.435,413.381 691.768,415.881 691.5,418.5C 679.167,418.5 666.833,418.5 654.5,418.5C 654.5,415.833 654.5,413.167 654.5,410.5 Z"/></g>
<g><path style="opacity:1" fill="#a85c37" d="M 570.5,413.5 C 571.527,415.194 572.861,416.527 574.5,417.5C 571.996,416.361 569.33,415.694 566.5,415.5C 567.761,419.374 568.428,423.374 568.5,427.5C 566.152,422.645 564.485,417.478 563.5,412C 565.757,412.437 568.09,412.937 570.5,413.5 Z"/></g>
<g><path style="opacity:1" fill="#442a19" d="M 841.5,423.5 C 841.846,420.115 842.512,416.782 843.5,413.5C 843.167,412.833 842.833,412.167 842.5,411.5C 838.187,414.035 833.854,416.368 829.5,418.5C 821.614,420.471 813.614,421.804 805.5,422.5C 800.12,422.676 794.787,422.342 789.5,421.5C 789.5,421.167 789.5,420.833 789.5,420.5C 797.174,420.666 804.841,420.5 812.5,420C 817.678,418.202 823.011,417.202 828.5,417C 832.816,413.852 837.483,411.352 842.5,409.5C 843.086,409.709 843.586,410.043 844,410.5C 844.622,414.029 844.455,417.529 843.5,421C 843.316,422.376 842.649,423.209 841.5,423.5 Z"/></g>
<g><path style="opacity:1" fill="#a55b34" d="M 829.5,418.5 C 828.942,419.79 827.942,420.623 826.5,421C 819.599,422.706 812.599,423.539 805.5,423.5C 805.5,423.167 805.5,422.833 805.5,422.5C 813.614,421.804 821.614,420.471 829.5,418.5 Z"/></g>
<g><path style="opacity:1" fill="#aa5e39" d="M 575.5,417.5 C 583.935,420.443 592.601,422.109 601.5,422.5C 601.5,422.833 601.5,423.167 601.5,423.5C 593.303,423.694 585.303,422.527 577.5,420C 576.244,419.583 575.577,418.75 575.5,417.5 Z"/></g>
<g><path style="opacity:1" fill="#dd9e63" d="M 789.5,421.5 C 794.787,422.342 800.12,422.676 805.5,422.5C 805.5,422.833 805.5,423.167 805.5,423.5C 800.5,423.5 795.5,423.5 790.5,423.5C 790.667,437.171 790.5,450.837 790,464.5C 788.629,466.041 787.129,467.375 785.5,468.5C 785.5,467.833 785.5,467.167 785.5,466.5C 786.794,465.71 787.961,464.71 789,463.5C 789.5,449.504 789.667,435.504 789.5,421.5 Z"/></g>
<g><path style="opacity:1" fill="#462919" d="M 570.5,413.5 C 568.09,412.937 565.757,412.437 563.5,412C 564.485,417.478 566.152,422.645 568.5,427.5C 569.188,431.584 570.188,435.584 571.5,439.5C 569.207,435.381 567.04,431.048 565,426.5C 563.043,421.416 562.21,416.082 562.5,410.5C 564.527,410.338 566.527,410.505 568.5,411C 569.756,411.417 570.423,412.25 570.5,413.5 Z"/></g>
<g><path style="opacity:1" fill="#c1541f" d="M 574.5,417.5 C 574.833,417.5 575.167,417.5 575.5,417.5C 575.577,418.75 576.244,419.583 577.5,420C 585.303,422.527 593.303,423.694 601.5,423.5C 601.5,423.833 601.5,424.167 601.5,424.5C 602.223,449.255 610.223,471.255 625.5,490.5C 623.199,489.94 620.866,489.44 618.5,489C 614.759,486.461 611.426,483.461 608.5,480C 605.639,479.46 602.972,478.46 600.5,477C 598.394,474.113 596.061,471.447 593.5,469C 592.427,467.584 592.427,466.25 593.5,465C 592.551,464.383 591.718,464.549 591,465.5C 589.508,462.121 587.008,460.121 583.5,459.5C 582.833,459.167 582.167,458.833 581.5,458.5C 578.149,452.46 574.816,446.46 571.5,440.5C 571.5,440.167 571.5,439.833 571.5,439.5C 570.188,435.584 569.188,431.584 568.5,427.5C 568.428,423.374 567.761,419.374 566.5,415.5C 569.33,415.694 571.996,416.361 574.5,417.5 Z"/></g>
<g><path style="opacity:1" fill="#106b6f" d="M 780.5,418.5 C 782.952,419.065 785.285,419.732 787.5,420.5C 787.5,433.833 787.5,447.167 787.5,460.5C 787.296,462.685 786.63,464.685 785.5,466.5C 784.167,466.833 782.833,467.167 781.5,467.5C 730.166,467.667 678.832,467.5 627.5,467C 625.03,466.011 622.697,464.845 620.5,463.5C 619.833,463.5 619.5,463.167 619.5,462.5C 619.5,448.5 619.5,434.5 619.5,420.5C 621.717,419.631 624.05,419.298 626.5,419.5C 626.185,433.246 626.519,446.912 627.5,460.5C 677.998,461.665 728.665,461.832 779.5,461C 780.49,446.912 780.824,432.745 780.5,418.5 Z"/></g>
<g><path style="opacity:1" fill="#cca271" d="M 617.5,421.5 C 618.495,434.323 618.829,447.323 618.5,460.5C 617.505,448.011 617.171,435.344 617.5,422.5C 612.203,423.275 606.87,423.608 601.5,423.5C 601.5,423.167 601.5,422.833 601.5,422.5C 606.845,422.313 612.178,421.98 617.5,421.5 Z"/></g>
<g><path style="opacity:1" fill="#4b2a18" d="M 840.5,423.5 C 840.833,423.5 841.167,423.5 841.5,423.5C 840.558,433.966 836.891,443.3 830.5,451.5C 834.815,442.557 838.149,433.224 840.5,423.5 Z"/></g>
<g><path style="opacity:1" fill="#b9a174" d="M 789.5,421.5 C 789.667,435.504 789.5,449.504 789,463.5C 787.961,464.71 786.794,465.71 785.5,466.5C 786.63,464.685 787.296,462.685 787.5,460.5C 788.167,447.5 788.833,434.5 789.5,421.5 Z"/></g>
<g><path style="opacity:1" fill="#45291a" d="M 571.5,440.5 C 574.816,446.46 578.149,452.46 581.5,458.5C 580.325,458.719 579.325,458.386 578.5,457.5C 577.169,454.166 575.335,451.166 573,448.5C 572.178,445.883 571.678,443.216 571.5,440.5 Z"/></g>
<g><path style="opacity:1" fill="#848763" d="M 617.5,421.5 C 617.5,421.167 617.5,420.833 617.5,420.5C 618.167,420.5 618.833,420.5 619.5,420.5C 619.5,434.5 619.5,448.5 619.5,462.5C 618.662,462.158 618.328,461.492 618.5,460.5C 618.829,447.323 618.495,434.323 617.5,421.5 Z"/></g>
<g><path style="opacity:1" fill="#56694f" d="M 787.5,420.5 C 788.167,420.5 788.833,420.5 789.5,420.5C 789.5,420.833 789.5,421.167 789.5,421.5C 788.833,434.5 788.167,447.5 787.5,460.5C 787.5,447.167 787.5,433.833 787.5,420.5 Z"/></g>
<g><path style="opacity:1" fill="#c6e3e3" d="M 778.5,417.5 C 779.167,417.833 779.833,418.167 780.5,418.5C 780.824,432.745 780.49,446.912 779.5,461C 728.665,461.832 677.998,461.665 627.5,460.5C 677.827,459.602 728.16,459.269 778.5,459.5C 778.5,445.5 778.5,431.5 778.5,417.5 Z"/></g>
<g><path style="opacity:1" fill="#4a2a18" d="M 830.5,451.5 C 830.66,453.199 830.494,454.866 830,456.5C 825.642,460.196 821.975,464.53 819,469.5C 813.779,475.835 807.613,480.835 800.5,484.5C 805.56,479.083 811.06,474.083 817,469.5C 821.748,463.599 826.248,457.599 830.5,451.5 Z"/></g>
<g><path style="opacity:1" fill="#ee954b" d="M 805.5,423.5 C 805.5,426.833 805.5,430.167 805.5,433.5C 803.222,455.039 795.222,474.039 781.5,490.5C 779.457,491.579 778.124,493.246 777.5,495.5C 776.85,495.804 776.183,496.137 775.5,496.5C 769.684,489.601 764.184,489.934 759,497.5C 757.482,496.837 756.315,495.837 755.5,494.5C 755.03,493.307 754.03,492.64 752.5,492.5C 747.084,494.25 743.751,497.917 742.5,503.5C 728.438,505.759 714.272,507.092 700,507.5C 694.5,507.333 689,507.167 683.5,507C 676.847,505.392 670.181,503.892 663.5,502.5C 663.715,500.821 663.048,499.821 661.5,499.5C 661.5,499.167 661.5,498.833 661.5,498.5C 661.16,496.321 660.16,494.488 658.5,493C 655.004,492.305 651.67,492.805 648.5,494.5C 646.829,491.327 644.163,489.66 640.5,489.5C 636.648,490.449 632.982,491.783 629.5,493.5C 628.167,492.5 626.833,491.5 625.5,490.5C 610.223,471.255 602.223,449.255 601.5,424.5C 606.5,424.5 611.5,424.5 616.5,424.5C 616.333,436.838 616.5,449.171 617,461.5C 617.73,465.896 620.23,468.73 624.5,470C 677.5,470.667 730.5,470.667 783.5,470C 784.056,469.617 784.389,469.117 784.5,468.5C 784.833,468.5 785.167,468.5 785.5,468.5C 787.129,467.375 788.629,466.041 790,464.5C 790.5,450.837 790.667,437.171 790.5,423.5C 795.5,423.5 800.5,423.5 805.5,423.5 Z"/></g>
<g><path style="opacity:1" fill="#1e656b" d="M 655.5,445.5 C 661.167,445.5 666.833,445.5 672.5,445.5C 672.5,447.167 672.5,448.833 672.5,450.5C 666.5,450.5 660.5,450.5 654.5,450.5C 654.366,448.708 654.699,447.042 655.5,445.5 Z"/></g>
<g><path style="opacity:1" fill="#1d6166" d="M 640.5,425.5 C 645.282,428.447 649.282,432.28 652.5,437C 649.004,441.329 645.337,445.496 641.5,449.5C 640.167,448.833 639.167,447.833 638.5,446.5C 641.167,443.5 643.833,440.5 646.5,437.5C 644.517,435.016 642.35,432.683 640,430.5C 639.36,428.735 639.527,427.068 640.5,425.5 Z"/></g>
<g><path style="opacity:1" fill="#b2572b" d="M 583.5,459.5 C 587.008,460.121 589.508,462.121 591,465.5C 591.718,464.549 592.551,464.383 593.5,465C 592.427,466.25 592.427,467.584 593.5,469C 596.061,471.447 598.394,474.113 600.5,477C 602.972,478.46 605.639,479.46 608.5,480C 611.426,483.461 614.759,486.461 618.5,489C 620.866,489.44 623.199,489.94 625.5,490.5C 626.833,491.5 628.167,492.5 629.5,493.5C 629.833,494.167 630.167,494.833 630.5,495.5C 624.538,494.023 618.871,491.69 613.5,488.5C 603.309,481.653 593.975,473.653 585.5,464.5C 584.833,462.833 584.167,461.167 583.5,459.5 Z"/></g>
<g><path style="opacity:1" fill="#3c6350" d="M 620.5,463.5 C 622.697,464.845 625.03,466.011 627.5,467C 678.832,467.5 730.166,467.667 781.5,467.5C 730.336,468.499 679.003,468.832 627.5,468.5C 624.326,467.99 621.992,466.323 620.5,463.5 Z"/></g>
<g><path style="opacity:1" fill="#9b966f" d="M 785.5,466.5 C 785.5,467.167 785.5,467.833 785.5,468.5C 785.167,468.5 784.833,468.5 784.5,468.5C 732.039,469.826 679.706,469.826 627.5,468.5C 679.003,468.832 730.336,468.499 781.5,467.5C 782.833,467.167 784.167,466.833 785.5,466.5 Z"/></g>
<g><path style="opacity:1" fill="#d9a063" d="M 618.5,460.5 C 618.328,461.492 618.662,462.158 619.5,462.5C 619.5,463.167 619.833,463.5 620.5,463.5C 621.992,466.323 624.326,467.99 627.5,468.5C 679.706,469.826 732.039,469.826 784.5,468.5C 784.389,469.117 784.056,469.617 783.5,470C 730.5,470.667 677.5,470.667 624.5,470C 620.23,468.73 617.73,465.896 617,461.5C 616.5,449.171 616.333,436.838 616.5,424.5C 611.5,424.5 606.5,424.5 601.5,424.5C 601.5,424.167 601.5,423.833 601.5,423.5C 606.87,423.608 612.203,423.275 617.5,422.5C 617.171,435.344 617.505,448.011 618.5,460.5 Z"/></g>
<g><path style="opacity:1" fill="#c2521d" d="M 781.5,490.5 C 795.222,474.039 803.222,455.039 805.5,433.5C 806.477,430.713 806.81,427.713 806.5,424.5C 810.902,424.772 815.235,424.439 819.5,423.5C 820.646,424.145 821.646,424.978 822.5,426C 820.431,426.324 820.098,427.158 821.5,428.5C 819.896,429.603 818.896,431.103 818.5,433C 820.001,436.545 819.501,437.045 817,434.5C 816.727,436.101 816.227,437.601 815.5,439C 816.424,439.85 816.424,440.85 815.5,442C 818.181,444.557 817.515,445.724 813.5,445.5C 813.715,447.774 814.382,449.941 815.5,452C 814.666,454.17 814.333,456.17 814.5,458C 817.712,459.709 817.878,461.209 815,462.5C 812.727,458.345 811.561,458.678 811.5,463.5C 810.5,463.5 809.5,463.5 808.5,463.5C 808.5,464.5 808.5,465.5 808.5,466.5C 809.822,466.67 810.989,466.337 812,465.5C 811.689,466.935 811.855,468.268 812.5,469.5C 811.302,469.94 810.135,470.273 809,470.5C 808.508,471.549 808.674,472.549 809.5,473.5C 805.833,473.833 803.833,475.833 803.5,479.5C 796.133,483.226 788.799,486.893 781.5,490.5 Z"/></g>
<g><path style="opacity:1" fill="#462a1a" d="M 585.5,464.5 C 593.975,473.653 603.309,481.653 613.5,488.5C 612.448,488.649 611.448,488.483 610.5,488C 606.176,485.17 601.843,482.337 597.5,479.5C 593.461,474.468 589.461,469.468 585.5,464.5 Z"/></g>
<g><path style="opacity:1" fill="#df9a5f" d="M 661.5,498.5 C 657.412,493.808 653.079,493.475 648.5,497.5C 643.42,489.983 637.92,489.65 632,496.5C 631.235,496.43 630.735,496.097 630.5,495.5C 630.167,494.833 629.833,494.167 629.5,493.5C 632.982,491.783 636.648,490.449 640.5,489.5C 644.163,489.66 646.829,491.327 648.5,494.5C 651.67,492.805 655.004,492.305 658.5,493C 660.16,494.488 661.16,496.321 661.5,498.5 Z"/></g>
<g><path style="opacity:1" fill="#422c1a" d="M 613.5,488.5 C 618.871,491.69 624.538,494.023 630.5,495.5C 630.735,496.097 631.235,496.43 632,496.5C 637.92,489.65 643.42,489.983 648.5,497.5C 653.079,493.475 657.412,493.808 661.5,498.5C 661.5,498.833 661.5,499.167 661.5,499.5C 662.301,501.042 662.634,502.708 662.5,504.5C 661.26,501.485 659.26,498.985 656.5,497C 655.667,496.833 654.833,496.667 654,496.5C 651.999,497.502 649.999,498.502 648,499.5C 645.828,497.079 643.162,495.412 640,494.5C 637.119,495.69 634.285,497.024 631.5,498.5C 630.5,498.333 629.5,498.167 628.5,498C 623.979,495.332 619.312,492.832 614.5,490.5C 613.702,490.043 613.369,489.376 613.5,488.5 Z"/></g>
<g><path style="opacity:1" fill="#3f2e1e" d="M 800.5,484.5 C 798.571,486.148 796.571,487.815 794.5,489.5C 793.359,490.425 793.359,491.259 794.5,492C 792.5,492.333 790.5,492.667 788.5,493C 784.292,495.406 779.792,497.24 775,498.5C 771.902,497.685 769.069,497.019 766.5,496.5C 765.833,497.167 765.167,497.833 764.5,498.5C 762.675,497.429 761.508,498.096 761,500.5C 758.316,499.136 755.649,497.802 753,496.5C 751.373,496.625 749.873,497.125 748.5,498C 747.837,499.518 746.837,500.685 745.5,501.5C 746.691,496.229 750.024,493.896 755.5,494.5C 756.315,495.837 757.482,496.837 759,497.5C 764.184,489.934 769.684,489.601 775.5,496.5C 776.183,496.137 776.85,495.804 777.5,495.5C 785.593,492.619 793.26,488.953 800.5,484.5 Z"/></g>
<g><path style="opacity:1" fill="#45280e" d="M 663.5,504.5 C 672.524,506.724 681.524,508.391 690.5,509.5C 683.794,509.552 677.128,509.052 670.5,508C 667.813,507.272 665.48,506.105 663.5,504.5 Z"/></g>
<g><path style="opacity:1" fill="#d7955b" d="M 755.5,494.5 C 750.024,493.896 746.691,496.229 745.5,501.5C 744.814,502.848 743.814,504.015 742.5,505C 725.379,508.875 708.046,510.375 690.5,509.5C 681.524,508.391 672.524,506.724 663.5,504.5C 663.167,504.5 662.833,504.5 662.5,504.5C 662.634,502.708 662.301,501.042 661.5,499.5C 663.048,499.821 663.715,500.821 663.5,502.5C 670.181,503.892 676.847,505.392 683.5,507C 689,507.167 694.5,507.333 700,507.5C 714.272,507.092 728.438,505.759 742.5,503.5C 743.751,497.917 747.084,494.25 752.5,492.5C 754.03,492.64 755.03,493.307 755.5,494.5 Z"/></g>
<g><path style="opacity:1" fill="#442a10" d="M 745.5,501.5 C 745.773,503.451 745.107,504.951 743.5,506C 725.874,510.232 708.207,511.399 690.5,509.5C 708.046,510.375 725.379,508.875 742.5,505C 743.814,504.015 744.814,502.848 745.5,501.5 Z"/></g>
</svg>
